<?xml version="1.0" encoding="UTF-8"?> <svg xmlns="http://www.w3.org/2000/svg" xmlns:xlink="http://www.w3.org/1999/xlink" width="630px" height="583px" viewBox="0 0 630 583"><!-- Generator: Sketch 53.2 (72643) - https://sketchapp.com --><title>prod-illust03</title><desc>Created with Sketch.</desc><g id="Page-1" stroke="none" stroke-width="1" fill="none" fill-rule="evenodd"><g id="erp-master" transform="translate(-625.000000, -82.000000)" fill-rule="nonzero"><g id="prod-illust03" transform="translate(625.000000, 81.000000)"><g id="Group" transform="translate(71.000000, 0.000000)"><path d="M265.6,542.4 L5.3,399.7 C-2.1,395.7 -1.1,388.6 7.4,384 L184.6,286.9 C193.1,282.2 206,281.7 213.3,285.8 L473.6,428.5 C481,432.5 480,439.6 471.5,444.2 L294.3,541.3 C285.8,545.9 273,546.4 265.6,542.4 Z" id="Path" fill="#D4ECFF"></path><g transform="translate(195.000000, 0.000000)" id="Path"><path d="M288.2,147.7 L23.7,2.7 C20.3,0.8 17.2,0.5 14.6,1.5 L14.6,1.5 L14.2,1.7 C14.2,1.7 14.1,1.7 14.1,1.7 L5.5,5.5 L14.9,9.9 C14.9,10.1 14.9,10.2 14.9,10.4 L15,216.8 C15,227.1 21.7,239.2 30,243.7 L287.5,384.8 L289,396.3 L298.4,392 C301.5,390.3 303.5,386.4 303.5,380.8 L303.4,174.4 C303.3,164.3 296.5,152.2 288.2,147.7 Z" fill="#173D7A"></path><path d="M288.2,147.7 L23.7,2.7 C20.3,0.8 17.2,0.5 14.6,1.5 L14.6,1.5 L14.2,1.7 C14.2,1.7 14.1,1.7 14.1,1.7 L5.5,5.5 L14.9,9.9 C14.9,10.1 14.9,10.2 14.9,10.4 L15,146.4 L135.4,236.7 L298.9,158.6 C296,154 292.3,149.9 288.2,147.7 Z" fill="#396CAA"></path><path d="M292.7,150.9 L266.8,161.3 L286.4,175.6 L302.7,169 C301.2,162.2 297.5,155.4 292.7,150.9 Z" fill="#274F89"></path><path d="M279.6,395.3 L15.1,250.4 C6.8,245.9 0.1,233.8 0.1,223.5 L0,17.1 C0,6.8 6.7,2.1 15,6.6 L279.6,151.5 C287.9,156 294.6,168.1 294.6,178.4 L294.7,384.8 C294.6,395.2 287.9,399.9 279.6,395.3 Z" fill="#D4ECFF"></path><path d="M270.8,380 L23.7,244.7 C16.1,240.5 9.9,229.5 9.9,220.1 L9.8,31.3 C9.8,21.8 15.9,17.6 23.5,21.7 L270.6,157 C278.2,161.2 284.4,172.2 284.4,181.6 L284.5,370.4 C284.6,379.8 278.4,384.1 270.8,380 Z" fill="#FFFFFF"></path><path d="M270.8,380 L23.7,244.7 C16.1,240.5 9.9,229.5 9.9,220.1 L9.8,31.3 C9.8,21.8 15.9,17.6 23.5,21.7 L270.6,157 C278.2,161.2 284.4,172.2 284.4,181.6 L284.5,370.4 C284.6,379.8 278.4,384.1 270.8,380 Z" fill="#FFFFFF"></path></g><path d="M478.6,401.7 L443,397.2 L213.4,271.3 C206,267.3 193.2,267.8 184.7,272.4 L21.9,361.7 L0.4,359 L0.4,370.6 L0.4,370.6 C0.3,373.3 1.9,375.9 5.3,377.8 L265.6,520.5 C273,524.5 285.8,524 294.3,519.4 L471.5,422.3 C476.3,419.7 478.7,416.3 478.5,413.1 L478.5,413.1 L478.5,401.7 L478.6,401.7 Z" id="Path" fill="#173D7A"></path><path d="M306,322.2 L289.7,313.3 L110.3,313.3 L21.9,361.8 L0.4,359 L0.4,370.6 L0.4,370.6 C0.3,373.3 1.9,375.9 5.3,377.8 L265.6,520.5 C269.5,522.6 274.9,523.5 280.4,523.1 L306,322.2 Z" id="Path" fill="#396CAA"></path><path d="M9.9,360.2 L0.4,359 L0.4,370.6 L0.4,370.6 C0.3,373.3 1.9,375.9 5.3,377.8 L9.9,380.3 L9.9,360.2 Z" id="Path" fill="#5793CE"></path><path d="M268.2,521.6 C275.2,524.1 285.2,523.6 292.6,520.2 L292.6,494.3 L268.2,494.3 L268.2,521.6 Z" id="Path" fill="#274F89"></path><path d="M265.6,508.9 L5.3,366.1 C-2.1,362.1 -1.1,355 7.4,350.4 L184.6,253.3 C193.1,248.6 206,248.1 213.3,252.2 L473.6,394.9 C481,398.9 480,406 471.5,410.6 L294.3,507.7 C285.8,512.4 273,512.9 265.6,508.9 Z" id="Path" fill="#D4ECFF"></path><path d="M471.5,406.3 L294.3,503.4 C285.8,508.1 272.9,508.6 265.6,504.5 L5.3,361.9 C2.9,360.6 1.4,358.9 0.7,357.1 C-0.5,360.4 1,363.8 5.3,366.1 L265.6,508.8 C273,512.8 285.8,512.3 294.3,507.7 L471.5,410.6 C477.2,407.5 479.5,403.3 478.1,399.6 C477.3,402 475.1,404.4 471.5,406.3 Z" id="Path" fill="#FFFFFF"></path><g transform="translate(103.000000, 258.000000)" id="Path"><path d="M13,60.9 L1.2,54.4 C0.3,53.9 0.4,53 1.5,52.4 L15.4,44.8 C16.5,44.2 18.1,44.1 19.1,44.7 L30.9,51.2 C31.8,51.7 31.7,52.6 30.6,53.2 L16.7,60.8 C15.6,61.4 14,61.4 13,60.9 Z" fill="#173D7A"></path><path d="M31.2,70.9 L19.4,64.4 C18.5,63.9 18.6,63 19.7,62.4 L33.6,54.8 C34.7,54.2 36.3,54.1 37.3,54.7 L49.1,61.2 C50,61.7 49.9,62.6 48.8,63.2 L34.9,70.8 C33.8,71.3 32.2,71.4 31.2,70.9 Z" fill="#173D7A"></path><path d="M49.4,80.8 L37.6,74.3 C36.7,73.8 36.8,72.9 37.9,72.3 L51.8,64.7 C52.9,64.1 54.5,64 55.5,64.6 L67.3,71.1 C68.2,71.6 68.1,72.5 67,73.1 L53.1,80.7 C52,81.3 50.4,81.4 49.4,80.8 Z" fill="#173D7A"></path><path d="M74.6,72.6 L62.8,66.1 C61.9,65.6 62,64.7 63.1,64.1 L74.8,57.7 C75.9,57.1 77.5,57 78.5,57.6 L90.3,64.1 C91.2,64.6 91.1,65.5 90,66.1 L78.3,72.5 C77.2,73.1 75.5,73.1 74.6,72.6 Z" fill="#173D7A"></path><path d="M92.7,82.6 L80.9,76.1 C80,75.6 80.1,74.7 81.2,74.1 L92.9,67.7 C94,67.1 95.6,67 96.6,67.6 L108.4,74.1 C109.3,74.6 109.2,75.5 108.1,76.1 L96.4,82.5 C95.3,83 93.7,83.1 92.7,82.6 Z" fill="#173D7A"></path><path d="M110.9,92.6 L99.1,86.1 C98.2,85.6 98.3,84.7 99.4,84.1 L111.1,77.7 C112.2,77.1 113.8,77 114.8,77.6 L126.6,84.1 C127.5,84.6 127.4,85.5 126.3,86.1 L114.6,92.5 C113.5,93 111.9,93.1 110.9,92.6 Z" fill="#173D7A"></path><path d="M129.1,102.5 L117.3,96 C116.4,95.5 116.5,94.6 117.6,94 L129.3,87.6 C130.4,87 132,86.9 133,87.5 L144.8,94 C145.7,94.5 145.6,95.4 144.5,96 L132.8,102.4 C131.7,103 130.1,103 129.1,102.5 Z" fill="#173D7A"></path><path d="M147.3,112.5 L135.5,106 C134.6,105.5 134.7,104.6 135.8,104 L147.5,97.6 C148.6,97 150.2,96.9 151.2,97.5 L163,104 C163.9,104.5 163.8,105.4 162.7,106 L151,112.4 C149.9,113 148.2,113 147.3,112.5 Z" fill="#173D7A"></path><path d="M165.5,122.5 L153.7,116 C152.8,115.5 152.9,114.6 154,114 L165.7,107.6 C166.8,107 168.4,106.9 169.4,107.5 L181.2,114 C182.1,114.5 182,115.4 180.9,116 L169.2,122.4 C168.1,122.9 166.4,123 165.5,122.5 Z" fill="#173D7A"></path><path d="M183.7,132.4 L171.9,125.9 C171,125.4 171.1,124.5 172.2,123.9 L183.9,117.5 C185,116.9 186.6,116.8 187.6,117.4 L199.4,123.9 C200.3,124.4 200.2,125.3 199.1,125.9 L187.4,132.3 C186.3,132.9 184.6,133 183.7,132.4 Z" fill="#173D7A"></path><path d="M201.9,142.4 L190.1,135.9 C189.2,135.4 189.3,134.5 190.4,133.9 L202.1,127.5 C203.2,126.9 204.8,126.8 205.8,127.4 L217.6,133.9 C218.5,134.4 218.4,135.3 217.3,135.9 L205.6,142.3 C204.5,142.9 202.8,142.9 201.9,142.4 Z" fill="#173D7A"></path><path d="M220,152.4 L208.2,145.9 C207.3,145.4 207.4,144.5 208.5,143.9 L220.2,137.5 C221.3,136.9 222.9,136.8 223.9,137.4 L235.7,143.9 C236.6,144.4 236.5,145.3 235.4,145.9 L223.7,152.3 C222.6,152.8 221,152.9 220,152.4 Z" fill="#173D7A"></path><path d="M238.2,162.4 L226.4,155.9 C225.5,155.4 225.6,154.5 226.7,153.9 L238.4,147.5 C239.5,146.9 241.1,146.8 242.1,147.4 L253.9,153.9 C254.8,154.4 254.7,155.3 253.6,155.9 L241.9,162.3 C240.8,162.8 239.2,162.9 238.2,162.4 Z" fill="#173D7A"></path><path d="M101.4,67.9 L89.6,61.4 C88.7,60.9 88.8,60 89.9,59.4 L101.6,53 C102.7,52.4 104.3,52.3 105.3,52.9 L117.1,59.4 C118,59.9 117.9,60.8 116.8,61.4 L105.1,67.8 C104,68.3 102.3,68.4 101.4,67.9 Z" fill="#396CAA"></path><path d="M82.9,57.8 L71.1,51.3 C70.2,50.8 70.3,49.9 71.4,49.3 L83.1,42.9 C84.2,42.3 85.8,42.2 86.8,42.8 L98.6,49.3 C99.5,49.8 99.4,50.7 98.3,51.3 L86.6,57.7 C85.5,58.2 83.8,58.3 82.9,57.8 Z" fill="#396CAA"></path><path d="M64.4,47.6 L39,33.7 C38.1,33.2 38.2,32.3 39.3,31.7 L51,25.3 C52.1,24.7 53.7,24.6 54.7,25.2 L80.1,39.1 C81,39.6 80.9,40.5 79.8,41.1 L68.1,47.5 C67,48.1 65.4,48.2 64.4,47.6 Z" fill="#173D7A"></path><path d="M77.3,35.3 L56.8,24 C55.9,23.5 56,22.6 57.1,22 L68.8,15.6 C69.9,15 71.5,14.9 72.5,15.5 L93.1,26.8 C94,27.3 93.9,28.2 92.8,28.8 L81.1,35.2 C79.9,35.8 78.3,35.8 77.3,35.3 Z" fill="#173D7A"></path><path d="M119.5,77.9 L107.7,71.4 C106.8,70.9 106.9,70 108,69.4 L119.7,63 C120.8,62.4 122.4,62.3 123.4,62.9 L135.2,69.4 C136.1,69.9 136,70.8 134.9,71.4 L123.2,77.8 C122.1,78.3 120.5,78.4 119.5,77.9 Z" fill="#A60ED8"></path><path d="M137.7,87.8 L125.9,81.3 C125,80.8 125.1,79.9 126.2,79.3 L137.9,72.9 C139,72.3 140.6,72.2 141.6,72.8 L153.4,79.3 C154.3,79.8 154.2,80.7 153.1,81.3 L141.4,87.7 C140.3,88.3 138.7,88.4 137.7,87.8 Z" fill="#173D7A"></path><path d="M155.9,97.8 L144.1,91.3 C143.2,90.8 143.3,89.9 144.4,89.3 L156.1,82.9 C157.2,82.3 158.8,82.2 159.8,82.8 L171.6,89.3 C172.5,89.8 172.4,90.7 171.3,91.3 L159.6,97.7 C158.5,98.3 156.9,98.3 155.9,97.8 Z" fill="#173D7A"></path><path d="M174.1,107.8 L162.3,101.3 C161.4,100.8 161.5,99.9 162.6,99.3 L174.3,92.9 C175.4,92.3 177,92.2 178,92.8 L189.8,99.3 C190.7,99.8 190.6,100.7 189.5,101.3 L177.8,107.7 C176.7,108.2 175,108.3 174.1,107.8 Z" fill="#173D7A"></path><path d="M192.3,117.7 L180.5,111.2 C179.6,110.7 179.7,109.8 180.8,109.2 L192.5,102.8 C193.6,102.2 195.2,102.1 196.2,102.7 L208,109.2 C208.9,109.7 208.8,110.6 207.7,111.2 L196,117.6 C194.9,118.2 193.2,118.3 192.3,117.7 Z" fill="#173D7A"></path><path d="M210.5,127.7 L198.7,121.2 C197.8,120.7 197.9,119.8 199,119.2 L210.7,112.8 C211.8,112.2 213.4,112.1 214.4,112.7 L226.2,119.2 C227.1,119.7 227,120.6 225.9,121.2 L214.2,127.6 C213.1,128.2 211.4,128.2 210.5,127.7 Z" fill="#173D7A"></path><path d="M228.7,137.7 L216.9,131.2 C216,130.7 216.1,129.8 217.2,129.2 L228.9,122.8 C230,122.2 231.6,122.1 232.6,122.7 L244.4,129.2 C245.3,129.7 245.2,130.6 244.1,131.2 L232.4,137.6 C231.2,138.1 229.6,138.2 228.7,137.7 Z" fill="#173D7A"></path><path d="M246.8,147.7 L235,141.2 C234.1,140.7 234.2,139.8 235.3,139.2 L247,132.8 C248.1,132.2 249.7,132.1 250.7,132.7 L262.5,139.2 C263.4,139.7 263.3,140.6 262.2,141.2 L250.5,147.6 C249.4,148.1 247.8,148.2 246.8,147.7 Z" fill="#173D7A"></path><path d="M265,157.6 L253.2,151.1 C252.3,150.6 252.4,149.7 253.5,149.1 L265.2,142.7 C266.3,142.1 267.9,142 268.9,142.6 L280.7,149.1 C281.6,149.6 281.5,150.5 280.4,151.1 L268.7,157.5 C267.6,158.1 266,158.2 265,157.6 Z" fill="#173D7A"></path><path d="M297.4,175.4 L271.7,161.3 C270.8,160.8 270.9,159.9 272,159.3 L283.7,152.9 C284.8,152.3 286.4,152.2 287.4,152.8 L313.1,166.9 C314,167.4 313.9,168.3 312.8,168.9 L301.1,175.3 C299.9,175.8 298.3,175.9 297.4,175.4 Z" fill="#173D7A"></path><path d="M332.8,155.9 L311.1,144 C310.2,143.5 310.3,142.6 311.4,142 L323.1,135.6 C324.2,135 325.8,134.9 326.8,135.5 L348.5,147.4 C349.4,147.9 349.3,148.8 348.2,149.4 L336.5,155.8 C335.4,156.4 333.7,156.5 332.8,155.9 Z" fill="#173D7A"></path><path d="M151.4,75.9 L139.6,69.4 C138.7,68.9 138.8,68 139.9,67.4 L151.6,61 C152.7,60.4 154.3,60.3 155.3,60.9 L167.1,67.4 C168,67.9 167.9,68.8 166.8,69.4 L155.1,75.8 C154,76.4 152.3,76.4 151.4,75.9 Z" fill="#173D7A"></path><path d="M132.7,65.7 L120.9,59.2 C120,58.7 120.1,57.8 121.2,57.2 L132.9,50.8 C134,50.2 135.6,50.1 136.6,50.7 L148.4,57.2 C149.3,57.7 149.2,58.6 148.1,59.2 L136.4,65.6 C135.3,66.1 133.7,66.2 132.7,65.7 Z" fill="#173D7A"></path><path d="M114.1,55.5 L102.3,49 C101.4,48.5 101.5,47.6 102.6,47 L114.3,40.6 C115.4,40 117,39.9 118,40.5 L129.8,47 C130.7,47.5 130.6,48.4 129.5,49 L117.8,55.4 C116.7,55.9 115.1,56 114.1,55.5 Z" fill="#A60ED8"></path><path d="M95.5,45.3 L83.7,38.8 C82.8,38.3 82.9,37.4 84,36.8 L95.7,30.4 C96.8,29.8 98.4,29.7 99.4,30.3 L111.2,36.8 C112.1,37.3 112,38.2 110.9,38.8 L99.2,45.2 C98.1,45.7 96.4,45.8 95.5,45.3 Z" fill="#173D7A"></path><path d="M169.6,85.9 L157.8,79.4 C156.9,78.9 157,78 158.1,77.4 L169.8,71 C170.9,70.4 172.5,70.3 173.5,70.9 L185.3,77.4 C186.2,77.9 186.1,78.8 185,79.4 L173.3,85.8 C172.2,86.3 170.5,86.4 169.6,85.9 Z" fill="#173D7A"></path><path d="M187.8,95.9 L176,89.4 C175.1,88.9 175.2,88 176.3,87.4 L188,81 C189.1,80.4 190.7,80.3 191.7,80.9 L203.5,87.4 C204.4,87.9 204.3,88.8 203.2,89.4 L191.5,95.8 C190.4,96.3 188.7,96.4 187.8,95.9 Z" fill="#173D7A"></path><path d="M205.9,105.8 L194.1,99.3 C193.2,98.8 193.3,97.9 194.4,97.3 L206.1,90.9 C207.2,90.3 208.8,90.2 209.8,90.8 L221.6,97.3 C222.5,97.8 222.4,98.7 221.3,99.3 L209.6,105.7 C208.5,106.3 206.9,106.3 205.9,105.8 Z" fill="#173D7A"></path><path d="M224.1,115.8 L212.3,109.3 C211.4,108.8 211.5,107.9 212.6,107.3 L224.3,100.9 C225.4,100.3 227,100.2 228,100.8 L239.8,107.3 C240.7,107.8 240.6,108.7 239.5,109.3 L227.8,115.7 C226.7,116.3 225.1,116.3 224.1,115.8 Z" fill="#173D7A"></path><path d="M242.3,125.8 L230.5,119.3 C229.6,118.8 229.7,117.9 230.8,117.3 L242.5,110.9 C243.6,110.3 245.2,110.2 246.2,110.8 L258,117.3 C258.9,117.8 258.8,118.7 257.7,119.3 L246,125.7 C244.9,126.2 243.3,126.3 242.3,125.8 Z" fill="#173D7A"></path><path d="M260.5,135.7 L248.7,129.2 C247.8,128.7 247.9,127.8 249,127.2 L260.7,120.8 C261.8,120.2 263.4,120.1 264.4,120.7 L276.2,127.2 C277.1,127.7 277,128.6 275.9,129.2 L264.2,135.6 C263.1,136.2 261.4,136.3 260.5,135.7 Z" fill="#173D7A"></path><path d="M278.7,145.7 L266.9,139.2 C266,138.7 266.1,137.8 267.2,137.2 L278.9,130.8 C280,130.2 281.6,130.1 282.6,130.7 L294.4,137.2 C295.3,137.7 295.2,138.6 294.1,139.2 L282.4,145.6 C281.3,146.2 279.6,146.2 278.7,145.7 Z" fill="#173D7A"></path><path d="M296.9,155.7 L285.1,149.2 C284.2,148.7 284.3,147.8 285.4,147.2 L297.1,140.8 C298.2,140.2 299.8,140.1 300.8,140.7 L312.6,147.2 C313.5,147.7 313.4,148.6 312.3,149.2 L300.6,155.6 C299.5,156.1 297.8,156.2 296.9,155.7 Z" fill="#173D7A"></path><path d="M315.1,165.7 L303.3,159.2 C302.4,158.7 302.5,157.8 303.6,157.2 L315.3,150.8 C316.4,150.2 318,150.1 319,150.7 L330.8,157.2 C331.7,157.7 331.6,158.6 330.5,159.2 L318.8,165.6 C317.6,166.1 316,166.2 315.1,165.7 Z" fill="#173D7A"></path><path d="M141.8,51.2 L130,44.7 C129.1,44.2 129.2,43.3 130.3,42.7 L142,36.3 C143.1,35.7 144.7,35.6 145.7,36.2 L157.5,42.7 C158.4,43.2 158.3,44.1 157.2,44.7 L145.5,51.1 C144.4,51.7 142.8,51.8 141.8,51.2 Z" fill="#173D7A"></path><path d="M123.7,41.3 L111.9,34.8 C111,34.3 111.1,33.4 112.2,32.8 L123.9,26.4 C125,25.8 126.6,25.7 127.6,26.3 L139.4,32.8 C140.3,33.3 140.2,34.2 139.1,34.8 L127.4,41.2 C126.3,41.8 124.7,41.8 123.7,41.3 Z" fill="#173D7A"></path><path d="M105.6,31.4 L93.8,24.9 C92.9,24.4 93,23.5 94.1,22.9 L105.8,16.5 C106.9,15.9 108.5,15.8 109.5,16.4 L121.3,22.9 C122.2,23.4 122.1,24.3 121,24.9 L109.3,31.3 C108.2,31.9 106.6,31.9 105.6,31.4 Z" fill="#173D7A"></path><path d="M87.5,21.5 L75.7,15 C74.8,14.5 74.9,13.6 76,13 L87.7,6.6 C88.8,6 90.4,5.9 91.4,6.5 L103.2,13 C104.1,13.5 104,14.4 102.9,15 L91.2,21.4 C90.1,21.9 88.5,22 87.5,21.5 Z" fill="#173D7A"></path><path d="M106.1,11.3 L94.3,4.8 C93.4,4.3 93.5,3.4 94.6,2.8 L98.5,0.7 C99.6,0.1 101.2,-2.77555756e-17 102.2,0.6 L114,7.1 C114.9,7.6 114.8,8.5 113.7,9.1 L109.8,11.2 C108.7,11.7 107.1,11.8 106.1,11.3 Z" fill="#173D7A"></path><path d="M129.7,24.2 L117.9,17.7 C117,17.2 117.1,16.3 118.2,15.7 L122.1,13.6 C123.2,13 124.8,12.9 125.8,13.5 L137.6,20 C138.5,20.5 138.4,21.4 137.3,22 L133.4,24.1 C132.3,24.7 130.7,24.7 129.7,24.2 Z" fill="#173D7A"></path><path d="M147.8,34.1 L136,27.6 C135.1,27.1 135.2,26.2 136.3,25.6 L140.2,23.5 C141.3,22.9 142.9,22.8 143.9,23.4 L155.7,29.9 C156.6,30.4 156.5,31.3 155.4,31.9 L151.5,34 C150.4,34.6 148.7,34.6 147.8,34.1 Z" fill="#173D7A"></path><path d="M165.8,44 L154,37.5 C153.1,37 153.2,36.1 154.3,35.5 L158.2,33.4 C159.3,32.8 160.9,32.7 161.9,33.3 L173.7,39.8 C174.6,40.3 174.5,41.2 173.4,41.8 L169.5,43.9 C168.4,44.4 166.7,44.5 165.8,44 Z" fill="#173D7A"></path><path d="M183.8,53.9 L172,47.4 C171.1,46.9 171.2,46 172.3,45.4 L176.2,43.3 C177.3,42.7 178.9,42.6 179.9,43.2 L191.7,49.7 C192.6,50.2 192.5,51.1 191.4,51.7 L187.5,53.8 C186.4,54.3 184.8,54.4 183.8,53.9 Z" fill="#173D7A"></path><path d="M284.4,109 L272.6,102.5 C271.7,102 271.8,101.1 272.9,100.5 L276.8,98.4 C277.9,97.8 279.5,97.7 280.5,98.3 L292.3,104.8 C293.2,105.3 293.1,106.2 292,106.8 L288.1,108.9 C287,109.5 285.3,109.5 284.4,109 Z" fill="#173D7A"></path><path d="M302.4,118.9 L290.6,112.4 C289.7,111.9 289.8,111 290.9,110.4 L294.8,108.3 C295.9,107.7 297.5,107.6 298.5,108.2 L310.3,114.7 C311.2,115.2 311.1,116.1 310,116.7 L306.1,118.8 C305,119.4 303.4,119.4 302.4,118.9 Z" fill="#173D7A"></path><path d="M320.4,128.8 L308.6,122.3 C307.7,121.8 307.8,120.9 308.9,120.3 L312.8,118.2 C313.9,117.6 315.5,117.5 316.5,118.1 L328.3,124.6 C329.2,125.1 329.1,126 328,126.6 L324.1,128.7 C323,129.2 321.4,129.3 320.4,128.8 Z" fill="#173D7A"></path><path d="M338.5,138.7 L326.7,132.2 C325.8,131.7 325.9,130.8 327,130.2 L330.9,128.1 C332,127.5 333.6,127.4 334.6,128 L346.4,134.5 C347.3,135 347.2,135.9 346.1,136.5 L342.2,138.6 C341.1,139.1 339.4,139.2 338.5,138.7 Z" fill="#173D7A"></path><path d="M160,61.2 L148.2,54.7 C147.3,54.2 147.4,53.3 148.5,52.7 L160.2,46.3 C161.3,45.7 162.9,45.6 163.9,46.2 L175.7,52.7 C176.6,53.2 176.5,54.1 175.4,54.7 L163.7,61.1 C162.6,61.7 160.9,61.7 160,61.2 Z" fill="#173D7A"></path><path d="M178.2,71.2 L166.4,64.7 C165.5,64.2 165.6,63.3 166.7,62.7 L178.4,56.3 C179.5,55.7 181.1,55.6 182.1,56.2 L193.9,62.7 C194.8,63.2 194.7,64.1 193.6,64.7 L181.9,71.1 C180.8,71.6 179.1,71.7 178.2,71.2 Z" fill="#173D7A"></path><path d="M196.4,81.2 L184.6,74.7 C183.7,74.2 183.8,73.3 184.9,72.7 L196.6,66.3 C197.7,65.7 199.3,65.6 200.3,66.2 L212.1,72.7 C213,73.2 212.9,74.1 211.8,74.7 L200.1,81.1 C199,81.6 197.3,81.7 196.4,81.2 Z" fill="#173D7A"></path><path d="M214.6,91.1 L202.8,84.6 C201.9,84.1 202,83.2 203.1,82.6 L214.8,76.2 C215.9,75.6 217.5,75.5 218.5,76.1 L230.3,82.6 C231.2,83.1 231.1,84 230,84.6 L218.3,91 C217.1,91.6 215.5,91.7 214.6,91.1 Z" fill="#173D7A"></path><path d="M232.7,101.1 L220.9,94.6 C220,94.1 220.1,93.2 221.2,92.6 L232.9,86.2 C234,85.6 235.6,85.5 236.6,86.1 L248.4,92.6 C249.3,93.1 249.2,94 248.1,94.6 L236.4,101 C235.3,101.6 233.7,101.6 232.7,101.1 Z" fill="#173D7A"></path><path d="M250.9,111.1 L239.1,104.6 C238.2,104.1 238.3,103.2 239.4,102.6 L251.1,96.2 C252.2,95.6 253.8,95.5 254.8,96.1 L266.6,102.6 C267.5,103.1 267.4,104 266.3,104.6 L254.6,111 C253.5,111.5 251.9,111.6 250.9,111.1 Z" fill="#173D7A"></path><path d="M269.1,121 L257.3,114.5 C256.4,114 256.5,113.1 257.6,112.5 L269.3,106.1 C270.4,105.5 272,105.4 273,106 L284.8,112.5 C285.7,113 285.6,113.9 284.5,114.5 L272.8,120.9 C271.7,121.5 270.1,121.6 269.1,121 Z" fill="#173D7A"></path><path d="M287.3,131 L275.5,124.5 C274.6,124 274.7,123.1 275.8,122.5 L287.5,116.1 C288.6,115.5 290.2,115.4 291.2,116 L303,122.5 C303.9,123 303.8,123.9 302.7,124.5 L291,130.9 C289.9,131.5 288.2,131.5 287.3,131 Z" fill="#173D7A"></path><path d="M305.5,141 L293.7,134.5 C292.8,134 292.9,133.1 294,132.5 L305.7,126.1 C306.8,125.5 308.4,125.4 309.4,126 L321.2,132.5 C322.1,133 322,133.9 320.9,134.5 L309.2,140.9 C308.1,141.4 306.4,141.5 305.5,141 Z" fill="#173D7A"></path><path d="M56,62.5 L21.3,43.5 C20.4,43 20.5,42.1 21.6,41.5 L33.3,35.1 C34.4,34.5 36,34.4 37,35 L71.7,54 C72.6,54.5 72.5,55.4 71.4,56 L59.7,62.4 C58.6,62.9 57,63 56,62.5 Z" fill="#173D7A"></path><path d="M279.4,185 L244.7,166 C243.8,165.5 243.9,164.6 245,164 L256.7,157.6 C257.8,157 259.4,156.9 260.4,157.5 L295.1,176.5 C296,177 295.9,177.9 294.8,178.5 L283.1,184.9 C282,185.4 280.4,185.5 279.4,185 Z" fill="#173D7A"></path><path d="M206.7,167.1 L194.9,160.6 C194,160.1 194.1,159.2 195.2,158.6 L209.1,151 C210.2,150.4 211.8,150.3 212.8,150.9 L224.6,157.4 C225.5,157.9 225.4,158.8 224.3,159.4 L210.4,167 C209.3,167.6 207.7,167.6 206.7,167.1 Z" fill="#173D7A"></path><path d="M74.7,94.7 L55.9,84.4 C55,83.9 55.1,83 56.2,82.4 L70.1,74.8 C71.2,74.2 72.8,74.1 73.8,74.7 L92.6,85 C93.5,85.5 93.4,86.4 92.3,87 L78.4,94.6 C77.2,95.1 75.6,95.2 74.7,94.7 Z" fill="#173D7A"></path><path d="M189.2,157.5 L170.4,147.2 C169.5,146.7 169.6,145.8 170.7,145.2 L184.6,137.6 C185.7,137 187.3,136.9 188.3,137.5 L207.1,147.8 C208,148.3 207.9,149.2 206.8,149.8 L192.9,157.4 C191.8,157.9 190.1,158 189.2,157.5 Z" fill="#173D7A"></path><path d="M100.9,109.1 L82.1,98.8 C81.2,98.3 81.3,97.4 82.4,96.8 L96.3,89.2 C97.4,88.6 99,88.5 100,89.1 L118.8,99.4 C119.7,99.9 119.6,100.8 118.5,101.4 L104.6,109 C103.5,109.5 101.8,109.6 100.9,109.1 Z" fill="#173D7A"></path><path d="M100,89 L181.9,133.9 C182.9,134.5 182.9,135.4 181.9,135.9 L167.7,143.7 C166.7,144.3 165,144.3 164,143.7 L82.1,98.8 L100,89 Z" fill="#173D7A"></path><path d="M257.5,185.2 L270.6,192.4 C271.4,192.8 271.3,193.6 270.4,194.1 L264.7,197.2 C263.8,197.7 262.5,197.7 261.7,197.3 L248.6,190.1 C247.8,189.7 247.9,188.9 248.8,188.4 L254.5,185.3 C255.4,184.8 256.8,184.8 257.5,185.2 Z" fill="#173D7A"></path><path d="M239.2,175.1 L252.3,182.3 C253.1,182.7 253,183.5 252.1,184 L246.4,187.1 C245.5,187.6 244.2,187.6 243.4,187.2 L230.3,180 C229.5,179.6 229.6,178.8 230.5,178.3 L236.2,175.2 C237.1,174.8 238.4,174.7 239.2,175.1 Z" fill="#173D7A"></path><path d="M221,165.2 L234.1,172.4 C234.9,172.8 234.8,173.6 233.9,174.1 L228.2,177.2 C227.3,177.7 226,177.7 225.2,177.3 L212.1,170.1 C211.3,169.7 211.4,168.9 212.3,168.4 L218,165.3 C218.9,164.8 220.2,164.7 221,165.2 Z" fill="#173D7A"></path><path d="M249.2,169.6 L262.3,176.8 C263.1,177.2 263,178 262.1,178.5 L256.4,181.6 C255.5,182.1 254.2,182.1 253.4,181.7 L240.3,174.5 C239.5,174.1 239.6,173.3 240.5,172.8 L246.2,169.7 C247.1,169.2 248.5,169.2 249.2,169.6 Z" fill="#173D7A"></path></g></g><g id="Group" transform="translate(306.000000, 71.000000)"><path d="M90.4,122.9 L4.1,75.6 C2,74.4 0.3,71.3 0.3,68.6 L0.3,4.1 C0.3,1.4 2,0.2 4.1,1.3 L90.4,48.6 C92.5,49.8 94.2,52.9 94.2,55.6 L94.2,120.1 C94.3,122.8 92.6,124.1 90.4,122.9 Z" id="Path" fill="#D4ECFF" opacity="0.4"></path><g transform="translate(25.000000, 37.000000)" id="Path"><path d="M5.2,42.3 L4.6,42 C2.3,40.8 0.5,37.5 0.5,34.6 L0.5,3.9 C0.5,1.1 2.3,-0.3 4.6,1 L5.2,1.3 C7.5,2.5 9.3,5.8 9.3,8.7 L9.3,39.4 C9.3,42.2 7.5,43.6 5.2,42.3 Z" fill="#B2D3EA"></path><path d="M22.6,51.8 L22,51.5 C19.7,50.3 17.9,47 17.9,44.1 L17.9,26.1 C17.9,23.3 19.7,21.9 22,23.2 L22.6,23.5 C24.9,24.7 26.7,28 26.7,30.9 L26.7,48.9 C26.6,51.8 24.8,53.1 22.6,51.8 Z" fill="#B2D3EA"></path><path d="M39.9,61.4 L39.3,61.1 C37,59.9 35.2,56.6 35.2,53.7 L35.2,10.9 C35.2,8.1 37,6.7 39.3,8 L39.9,8.3 C42.2,9.5 44,12.8 44,15.7 L44,58.5 C44,61.3 42.2,62.6 39.9,61.4 Z" fill="#396CAA"></path></g></g><g id="Group" transform="translate(421.000000, 137.000000)"><path d="M57.7,39.5 L4.1,10.1 C2.1,9 0.5,6.1 0.5,3.6 L0.5,3.6 C0.5,1.1 2.1,-0.1 4.1,1 L57.7,30.4 C59.7,31.5 61.3,34.4 61.3,36.9 L61.3,36.9 C61.3,39.5 59.7,40.6 57.7,39.5 Z" id="Path" fill="#B2D3EA"></path><path d="M23.2,38.5 L4.1,28 C2.1,26.9 0.5,24 0.5,21.5 L0.5,21.5 C0.5,19 2.1,17.8 4.1,18.9 L23.2,29.4 C25.2,30.5 26.8,33.4 26.8,35.9 L26.8,35.9 C26.8,38.5 25.2,39.6 23.2,38.5 Z" id="Path" fill="#B2D3EA"></path><path d="M55.4,56.1 L36.3,45.6 C34.3,44.5 32.7,41.6 32.7,39.1 L32.7,39.1 C32.7,36.6 34.3,35.4 36.3,36.5 L55.4,47 C57.4,48.1 59,51 59,53.5 L59,53.5 C59,56.1 57.3,57.2 55.4,56.1 Z" id="Path" fill="#396CAA"></path><path d="M95.7,78.3 L68.3,63.2 C66.3,62.1 64.7,59.2 64.7,56.7 L64.7,56.7 C64.7,54.2 66.3,53 68.3,54.1 L95.7,69.2 C97.7,70.3 99.3,73.2 99.3,75.7 L99.3,75.7 C99.3,78.3 97.7,79.4 95.7,78.3 Z" id="Path" fill="#B2D3EA"></path><path d="M71.1,82.7 L4.1,46 C2.1,44.9 0.5,42 0.5,39.5 L0.5,39.5 C0.5,37 2.1,35.8 4.1,36.9 L71.1,73.6 C73.1,74.7 74.7,77.6 74.7,80.1 L74.7,80.1 C74.7,82.6 73.1,83.8 71.1,82.7 Z" id="Path" fill="#B2D3EA"></path><path d="M99.3,115.9 L4.1,63.9 C2.1,62.8 0.5,59.9 0.5,57.4 L0.5,57.4 C0.5,54.9 2.1,53.7 4.1,54.8 L99.3,106.8 C101.3,107.9 102.9,110.8 102.9,113.3 L102.9,113.3 C102.9,115.8 101.3,117 99.3,115.9 Z" id="Path" fill="#396CAA"></path><path d="M107.4,66.7 L72.6,47.7 C70.6,46.6 69,43.7 69,41.2 L69,41.2 C69,38.7 70.6,37.5 72.6,38.6 L107.4,57.6 C109.4,58.7 111,61.6 111,64.1 L111,64.1 C111,66.6 109.3,67.8 107.4,66.7 Z" id="Path" fill="#B2D3EA"></path></g><g id="Group" transform="translate(306.000000, 195.000000)"><polygon id="Path" fill="#396CAA" points="17 10 0 0.8 0 19.3 17 28.6"></polygon><polygon id="Path" fill="#D4ECFF" points="43.7 9.4 26.8 0.1 26.8 34 43.7 43.3"></polygon><polygon id="Path" fill="#D4ECFF" points="70.5 33.7 53.5 24.4 53.5 48.7 70.5 57.9"></polygon><polygon id="Path" fill="#D4ECFF" points="97.2 41.4 80.3 32.1 80.3 63.3 97.2 72.6"></polygon><polygon id="Path" fill="#396CAA" points="124 57.9 107 48.7 107 78 124 87.3"></polygon><polygon id="Path" fill="#173D7A" points="150.7 65.2 133.8 55.9 133.8 92.7 150.7 102"></polygon><polygon id="Path" fill="#D4ECFF" points="177.5 76 160.5 66.7 160.5 107.3 177.5 116.6"></polygon><polygon id="Path" fill="#396CAA" points="204.2 80.7 187.3 71.5 187.3 122 204.2 131.3"></polygon></g><polygon id="Path" fill="#274F89" points="362.1 452.2 328 433.5 293.9 452.2 328 470.9"></polygon><polygon id="Path" fill="#274F89" points="294.8 415.2 260.7 396.5 226.6 415.2 260.7 433.9"></polygon><polygon id="Path" fill="#274F89" points="222.6 375.9 188.5 357.2 154.4 375.9 188.5 394.6"></polygon><g id="Group" transform="translate(154.000000, 201.000000)"><g transform="translate(72.000000, 77.000000)" id="Path"><polygon fill="#C13D1A" points="34.7 137.2 34.7 37.4 68.8 18.7 68.8 118.5"></polygon><polygon fill="#EF602E" points="68.8 18.7 34.7 0 0.6 18.7 34.7 37.4"></polygon><polygon fill="#5793CE" points="34.7 37.4 0.6 18.7 0.6 118.5 34.7 137.2"></polygon><polygon fill="#396CAA" points="34.7 137.2 34.7 37.4 68.8 18.7 68.8 118.5"></polygon><polygon fill="#D4ECFF" points="68.8 18.7 34.7 0 0.6 18.7 34.7 37.4"></polygon></g><g transform="translate(145.000000, 160.000000)" id="Path"><polygon fill="#173D7A" points="34.2 94.4 34.2 38.3 68.3 19.6 68.3 75.7"></polygon><polygon fill="#396CAA" points="34.2 38.3 0 19.6 0 75.7 34.2 94.4"></polygon><polygon fill="#D4ECFF" points="68.3 19.6 34.2 0.9 0 19.6 34.2 38.3"></polygon></g><g id="Path"><polygon fill="#D4ECFF" points="34.5 174.9 34.5 37.7 68.6 19 68.6 156.2"></polygon><polygon fill="#396CAA" points="34.5 37.7 0.4 19 0.4 156.2 34.5 174.9"></polygon><polygon fill="#5793CE" points="68.6 19 34.5 0.3 0.4 19 34.5 37.7"></polygon></g></g><g id="Group" transform="translate(125.000000, 75.000000)"><g transform="translate(4.000000, 0.000000)"><path d="M39.2,222.5 C39.2,222.5 33.6,219.8 30.1,223.8 C26.6,227.8 21.7,237.3 21.5,243.7 C21.3,250.1 26.8,249.7 30.1,248.2 C33.4,246.7 42.9,233.5 43.5,231 C44.1,228.5 42.8,224.9 41.9,224.3 C41,223.6 39.2,222.5 39.2,222.5 Z" id="Path" fill="#5793CE"></path><path d="M40.4,221.3 L40.7,226.8 C40.8,228 40.1,229.1 39.1,229.7 C38.1,230.2 36.7,230.6 34.8,230.3 C30.6,229.7 30.2,228.5 29.9,223 C29.4,217.4 40.4,221.3 40.4,221.3 Z" id="Path" fill="#D4ECFF"></path><g transform="translate(0.000000, 98.000000)" id="Path"><path d="M18.5,113.9 C18.5,113.9 12.9,111.2 9.4,115.2 C5.9,119.2 1,128.7 0.8,135.1 C0.6,141.5 6.1,141.1 9.4,139.6 C12.7,138.1 22.2,124.9 22.8,122.4 C23.4,119.8 22.1,116.3 21.2,115.7 C20.4,114.9 18.5,113.9 18.5,113.9 Z" fill="#5793CE"></path><path d="M19.8,112.6 L20.1,118.1 C20.2,119.3 19.5,120.4 18.5,121 C17.5,121.5 16.1,121.9 14.2,121.6 C10,121 9.6,119.8 9.3,114.3 C8.8,108.8 19.8,112.6 19.8,112.6 Z" fill="#D4ECFF"></path><path d="M70.1,10.8 C68.4,-15 40.7,14.6 40.7,14.6 L21.7,32.3 L4.6,50.1 C1.3,53.6 -0.3,58.3 0.4,62.9 L7.3,112.9 C7.6,115.4 9.9,117.2 12.5,117.2 C13.2,117.2 14.1,117.1 15.1,117 C21.3,116.1 20.8,110.5 20.8,110.5 L19.5,63.8 L55.4,43.3 C55.4,43.2 71.7,36.6 70.1,10.8 Z" fill="#173D7A"></path></g><path d="M90.7,118.6 C89,92.8 61.3,122.4 61.3,122.4 L42.3,140.1 L25.2,157.9 C21.9,161.4 20.3,166.1 21,170.7 L27.9,220.7 C28.2,223.2 30.5,225 33.1,225 C33.8,225 34.7,224.9 35.7,224.8 C41.9,223.9 41.4,218.3 41.4,218.3 L40.1,171.6 L76,151 C76,151 92.3,144.4 90.7,118.6 Z" id="Path" fill="#173D7A"></path><path d="M74.3,35.9 C95.3,44.2 94.9,56 94.9,56 C94.9,56 90.8,99.3 92.2,128.1 C92.8,140.2 24.6,141.1 34.8,108.9 C46.8,70.9 42.3,40.2 47.9,35.5 C53.5,30.9 68.8,33.8 74.3,35.9 Z" id="Path" fill="#DAE828"></path><path d="M81,46.4 C79.9,50.5 74.3,52.6 68.5,51.2 C62.7,49.8 58.9,45.3 60,41.3 C61.1,37.2 66.7,35.1 72.5,36.5 C78.3,37.9 82.1,42.3 81,46.4 Z" id="Path" fill="#FFC2B0"></path><path d="M72.1,52.5 C70.9,52.5 69.6,52.4 68.3,52 C62,50.5 57.8,45.5 59.1,40.9 C60.3,36.3 66.5,33.9 72.8,35.4 C75.8,36.1 78.4,37.7 80.2,39.7 C82,41.8 82.7,44.2 82.1,46.5 C81,50.2 76.9,52.5 72.1,52.5 Z M68.9,37 C65,37 61.7,38.7 61,41.5 C60,45 63.5,49 68.8,50.2 C74,51.5 79.1,49.7 80.1,46.1 C80.5,44.4 80,42.6 78.6,41 C77.1,39.3 74.9,38 72.3,37.4 C71.1,37.1 70,37 68.9,37 Z" id="Shape" fill="#FFFFFF"></path><path d="M65.9,35 C65.9,35 66.1,35.8 65.7,42.1 C65.6,44.1 72.9,45.9 74.8,44.1 C76.7,42.3 75.9,40.4 76.4,33.7 C76.8,27 65.9,35 65.9,35 Z" id="Path" fill="#FFC2B0"></path><path d="M76.4,33.7 C76.4,33.7 74.6,40 65.7,42.4 L65.8,36.7 L76.4,33.7 Z" id="Path" fill="#EA9C92"></path><path d="M82,17.8 C84.2,26 79,34.4 70.4,36.5 C61.8,38.6 52.9,33.7 50.7,25.5 C48.5,17.3 53.7,8.9 62.3,6.8 C71,4.7 79.8,9.6 82,17.8 Z" id="Path" fill="#FFC2B0"></path><path d="M70.1,22.2 C70.1,22.2 61.2,25.8 55,25.9 C48.8,25.9 50.2,21 50.2,21 L68.5,18.5 L70.1,22.2 Z" id="Path" fill="#EA9C92"></path><path d="M53.2,23.2 C53.2,23.2 61,20.1 67.8,21.4 C69.4,21.7 70.9,22.5 71.9,23.7 C72.2,24.1 72.7,24.5 73.1,24.6 C74.3,24.9 76.3,20.1 78.6,20 C80.9,19.9 82.5,21.5 80.6,24.4 C78.7,27.3 79.3,30.6 80.2,31.1 C81.1,31.6 90.5,24.7 82.2,9.2 C73.9,-6.4 52.9,2 49.6,5.2 C49.6,5.2 46.2,8.1 43.4,5.5 C43.4,5.3 40.2,27.7 53.2,23.2 Z" id="Path" fill="#FF2C9C"></path><path d="M83.1,87.6 L83.1,99.3 C83.1,100.6 82.5,101.9 81.5,102.8 L56.2,124.7 L59.1,128.9 L92.5,105.9 C94.1,104.8 95.1,103.2 95.3,101.4 L97.6,81 L83.1,87.6 Z" id="Path" fill="#FFC2B0"></path><path d="M93.1,50.1 C93.1,50.1 100.8,61.1 103.6,89.9 C103.6,89.9 90.5,93.9 83.1,91.6 C75.7,89.4 93.1,50.1 93.1,50.1 Z" id="Path" fill="#DAE828"></path><path d="M81.7,64 C81.7,64 78.7,79.3 78.5,86.4 C78.5,88.4 79.7,90.2 81.7,90.8 L81.7,90.8 L81.7,64 Z" id="Path" fill="#AAAA1D"></path></g><g transform="translate(3.000000, 115.000000)" id="Path"><path d="M76.1,24.9 L70.5,24.2 L34.4,4.4 C33.2,3.8 31.2,3.8 29.9,4.6 L4.3,18.6 L0.9,18.2 L0.9,21.4 L0.9,21.4 C0.9,21.8 1.1,22.2 1.7,22.5 L42.6,44.9 C43.8,45.5 45.8,45.5 47.1,44.7 L74.9,29.4 C75.7,29 76,28.5 76,28 L76,28 L76,24.9 L76.1,24.9 Z" fill="#5793CE"></path><path d="M49,12.4 L46.4,11 L18.2,11 L4.3,18.6 L0.9,18.2 L0.9,21.4 L0.9,21.4 C0.9,21.8 1.1,22.2 1.7,22.5 L42.6,44.9 C43.2,45.2 44.1,45.4 44.9,45.3 L49,12.4 Z" fill="#396CAA"></path><path d="M2.5,18.3 L1,18.1 L1,21.3 L1,21.3 C1,21.7 1.2,22.1 1.8,22.4 L2.5,22.8 L2.5,18.3 Z" fill="#5793CE"></path><path d="M43.1,45.1 C44.2,45.5 45.8,45.4 46.9,44.9 L46.9,39.5 L43.1,39.5 L43.1,45.1 Z" fill="#FFFFFF"></path><path d="M42.7,41.7 L1.8,19.3 C0.6,18.7 0.8,17.6 2.1,16.8 L29.9,1.5 C31.2,0.8 33.3,0.7 34.4,1.3 L75.3,23.7 C76.5,24.3 76.3,25.4 75,26.2 L47.2,41.5 C45.9,42.2 43.8,42.3 42.7,41.7 Z" fill="#FFFFFF"></path><path d="M42,38.3 L8,19.7 C7,19.2 7.2,18.3 8.3,17.6 L23.2,9.6 C24.3,9 26,8.9 27,9.5 L61,28.1 C62,28.6 61.8,29.5 60.7,30.2 L45.8,38.2 C44.6,38.8 43,38.8 42,38.3 Z" fill="#D4ECFF"></path></g><path d="M34.5,115.8 L34.1,118.5 C33.7,120.8 33.8,123.1 34.3,125.4 L34.8,127.8 C35.1,129.1 36.2,130.2 37.6,130.4 L37.6,130.4 C38.7,130.6 39.7,129.9 39.9,128.8 L40.6,123.1 C40.6,123.1 42.1,125 42.9,125 C43.6,125 42.1,119.3 40.4,116 C38.6,112.7 34.5,115.8 34.5,115.8 Z" id="Path" fill="#FFC2B0"></path><path d="M48.4,73.2 L44,81.4 C43,83.3 42.4,85.5 42.2,87.7 L40.3,115.9 L34.5,115.8 L31.9,84.1 C31.8,83.1 31.9,82.1 32,81.2 L35,65.1 L48.4,73.2 Z" id="Path" fill="#FFC2B0"></path><g transform="translate(0.000000, 99.000000)" id="Path"><path d="M44.3,59.8 L40.9,55.6 L4.9,35.8 C3.7,35.2 2.8,33.5 2.8,32 L2.8,4 L0.7,1.4 L2.6,0.3 L2.6,0.3 C3,0.1 3.5,0.1 4,0.4 L44.8,22.9 C46,23.5 46.9,25.2 46.9,26.7 L46.9,57.2 C46.9,58 46.6,58.6 46.1,58.8 L46.1,58.8 L44.3,59.8 Z" fill="#173D7A"></path><path d="M19.4,43.8 L16.8,42.4 L2.7,19.2 L2.7,4 L0.6,1.4 L2.5,0.3 L2.5,0.3 C2.9,0.1 3.4,0.1 3.9,0.4 L44.7,22.9 C45.3,23.2 45.9,23.9 46.2,24.6 L19.4,43.8 Z" fill="#396CAA"></path><path d="M1.6,2.5 L0.7,1.4 L2.6,0.3 L2.6,0.3 C3,0.1 3.5,0.1 4,0.4 L4.7,0.8 L1.6,2.5 Z" fill="#5793CE"></path><path d="M45.3,23.1 C46.2,23.8 46.9,25.1 47,26.4 L43,28.6 L41.1,25.4 L45.3,23.1 Z" fill="#274F89"></path><path d="M43,23.9 L2.2,1.4 C1,0.8 0.1,1.4 0.1,2.9 L0.1,33.4 C0.1,34.9 1,36.6 2.2,37.2 L43,59.7 C44.2,60.3 45.1,59.7 45.1,58.2 L45.1,27.7 C45.1,26.3 44.1,24.6 43,23.9 Z" fill="#5793CE"></path></g><path d="M63,128.8 L62.3,130.1 C61.5,131.6 60.4,132.8 58.9,133.7 L54.8,136.1 C53.5,136.8 51.9,136.9 50.7,136.2 C50.7,136.2 50.6,136.1 50.6,136.1 C49.3,135.3 49.2,133.6 50.3,132.5 L54.5,128.4 C54.5,128.4 52.1,130.1 51.5,129.4 C51,128.9 53.8,126.4 56,126.3 C58.1,126.2 60.2,124.6 60.2,124.6 L63,128.8 Z" id="Path" fill="#FFC2B0"></path><path d="M52.3,35.5 C52.3,35.5 36.8,51.6 30.5,66.3 C30.5,66.3 35.8,75.4 48.8,79 C61.8,82.5 52.3,35.5 52.3,35.5 Z" id="Path" fill="#DAE828"></path><path d="M45.9,78 L48.4,54.9 L42.5,76.6 C43.5,77 44.7,77.5 45.9,78 Z" id="Path" fill="#AAAA1D"></path><path d="M63.9,32.2 L59.7,31.1 C59.7,31.1 61.7,34.1 64.6,34.8 C67.5,35.6 68,33.2 68,33.2 L63.9,32.2 Z" id="Path" fill="#FFFFFF"></path></g><g id="Group" transform="translate(17.000000, 434.000000)"><path d="M135.3,81.7 C107.2,66.3 61.7,66.3 33.6,81.7 C5.5,97.1 5.5,122.1 33.6,137.5 C61.7,152.9 107.2,152.9 135.3,137.5 C163.4,122 163.4,97.1 135.3,81.7 Z M107.8,122.4 C94.9,129.5 74,129.5 61,122.4 C48.1,115.3 48.1,103.8 61,96.8 C73.9,89.7 94.8,89.7 107.8,96.8 C120.7,103.8 120.7,115.3 107.8,122.4 Z" id="Shape" fill="#D4ECFF"></path><g id="Path"><g transform="translate(10.000000, 0.000000)"><path d="M12.9,72.5 L38.6,72.9 C40.5,70.6 43.2,68.4 46.7,66.4 C60.8,58.7 83,58.1 98.4,64.6 L113.6,51 L137.1,51.3 C135.9,50.6 134.7,49.9 133.5,49.2 C100.9,31.3 48,31.3 15.3,49.2 C9.3,52.5 4.4,56.2 0.6,60.1 L12.9,72.5 Z" fill="#173D7A"></path><polygon fill="#5793CE" points="137.1 16 137.1 51.4 113.6 51 113.6 15.6"></polygon><polygon fill="#173D7A" points="98.4 29.3 98.4 64.6 113.6 51 113.6 15.6"></polygon><path d="M38.6,37.5 L38.6,72.9 L72.4,46.8 L98.4,64.6 L98.4,29.2 L74.4,18.2 C74.4,18.2 41.4,27.8 39.7,28.2 C38,28.6 38.6,37.5 38.6,37.5 Z" fill="#173D7A"></path><polygon fill="#173D7A" points="12.9 37.2 12.9 72.5 38.6 72.9 38.6 37.5"></polygon><polygon fill="#5793CE" points="0.7 24.7 0.7 60.1 12.9 72.5 12.9 37.2"></polygon><path d="M12.9,37.2 L38.6,37.6 C40.5,35.3 43.2,33.1 46.7,31.1 C60.8,23.4 83,22.8 98.4,29.3 L113.6,15.7 L137.1,16 C135.9,15.3 134.7,14.6 133.5,13.9 C100.9,-4 48,-4 15.3,13.9 C9.3,17.2 4.4,20.9 0.6,24.8 L12.9,37.2 Z" fill="#D4ECFF"></path></g><g transform="translate(99.000000, 21.000000)"><path d="M17.1,12.6 L17.1,45.1 L39.3,40 C39.3,40 38,21 37.5,20.5 C37.1,20 17.1,12.6 17.1,12.6 Z" fill="#5793CE"></path><g><path d="M0.3,45.1 L0.3,80.5 L2.7,82.9 L18.4,74.3 C18.4,74.3 16,47.3 15.7,46.7 C15.4,46.3 0.3,45.1 0.3,45.1 Z" fill="#173D7A"></path><path d="M30.5,36 L17.1,48 C28.3,56.4 27,68.3 13.1,75.8 C9.3,77.9 4.9,79.4 0.3,80.5 L14.2,94.5 L1.9,105.5 C17.5,103.8 32.4,99.6 44.5,93 C72.5,77.6 76.5,54 56.3,36.3 L30.5,36 Z" fill="#396CAA"></path><polygon fill="#396CAA" points="1.9 70.2 1.9 105.6 32.3 94.4 69 61.2 68.8 23.6 30.1 52.8"></polygon><path d="M30.5,0.6 L17.1,12.6 C28.3,21 27,32.9 13.1,40.4 C9.3,42.5 4.9,44 0.3,45.1 L14.2,59.1 L1.9,70.1 C17.5,68.4 32.4,64.2 44.5,57.6 C72.5,42.2 76.5,18.6 56.3,0.9 L30.5,0.6 Z" fill="#D4ECFF"></path></g></g><g transform="translate(0.000000, 31.000000)"><path d="M100.8,84.4 L88.6,72 C77.2,72.7 65.5,70.6 56.8,65.8 C47.8,60.9 44.1,54.1 45.7,47.7 L16.6,47.3 L5.3,36 C-4.5,52 2.2,70.3 25.4,83 C42.4,92.3 65,96.8 87.4,96.4 L100.8,84.4 Z" fill="#396CAA"></path><polygon fill="#396CAA" points="87.3 61 87.3 96.4 0.9 50.9 0.9 15.5 13.5 20.4"></polygon><polygon fill="#173D7A" points="100.8 49 100.8 84.4 87.3 96.4 87.3 61"></polygon><path d="M100.8,49 L88.6,36.6 C77.2,37.3 65.5,35.2 56.8,30.4 C47.8,25.5 44.1,18.7 45.7,12.3 L16.6,11.9 L5.4,0.6 C-4.4,16.6 2.3,34.9 25.5,47.6 C42.5,56.9 65.1,61.4 87.5,61 L100.8,49 Z" fill="#5793CE"></path></g></g></g><ellipse id="Oval" fill="#D4ECFF" cx="481" cy="532.7" rx="12.3" ry="11.7"></ellipse><g id="Group" transform="translate(0.000000, 285.000000)"><g id="Path"><path d="M51.8,25.4 L7.9,1.3 C7,0.8 6.2,0.8 5.6,1.1 C5.6,1.1 5.6,1.1 5.6,1.1 L1.3,3.4 C1.3,3.4 3.2,4.1 4.3,4.4 L4.3,34.8 C4.3,37.3 5.9,40.1 7.8,41.2 L49.8,64.2 L49.8,67.8 L54.1,65.4 L54.1,65.4 C54.8,65 55.3,64.1 55.3,62.7 L55.3,31.7 C55.3,29.4 53.7,26.5 51.8,25.4 Z" fill="#641589"></path><path d="M47.5,67.8 L3.5,43.7 C1.5,42.6 0,39.8 0,37.3 L0,6.3 C0,3.8 1.6,2.7 3.5,3.8 L47.4,27.9 C49.4,29 50.9,31.8 50.9,34.3 L50.9,65.3 C51,67.7 49.4,68.8 47.5,67.8 Z" fill="#B22EFF"></path></g><g transform="translate(12.000000, 27.000000)" fill="#FFFFFF" id="Path"><path d="M6.3,6 C6.3,7.8 5,8.5 3.3,7.6 C1.7,6.7 0.3,4.5 0.3,2.7 C0.3,0.9 1.6,0.2 3.3,1.1 C5,2 6.3,4.2 6.3,6 Z"></path><path d="M15.3,10.9 C15.3,12.7 14,13.4 12.3,12.5 C10.7,11.6 9.3,9.4 9.3,7.6 C9.3,5.8 10.6,5.1 12.3,6 C14,6.9 15.3,9.1 15.3,10.9 Z"></path><path d="M24.3,15.8 C24.3,17.6 23,18.3 21.3,17.4 C19.7,16.5 18.3,14.3 18.3,12.5 C18.3,10.7 19.6,10 21.3,10.9 C22.9,11.9 24.3,14 24.3,15.8 Z"></path></g></g><g id="Group" transform="translate(421.000000, 0.000000)"><g id="Path"><path d="M52,25.5 L8.1,1.4 C7.2,0.9 6.4,0.9 5.8,1.2 C5.8,1.2 5.8,1.2 5.8,1.2 L1.5,3.5 C1.5,3.5 3.4,4.2 4.5,4.5 L4.5,34.9 C4.5,37.4 6.1,40.2 8,41.3 L50,64.3 L50,67.9 L54.3,65.5 L54.3,65.5 C55,65.1 55.5,64.2 55.5,62.8 L55.5,31.8 C55.5,29.4 54,26.5 52,25.5 Z" fill="#5793CE"></path><path d="M47.7,67.8 L3.8,43.7 C1.8,42.6 0.3,39.8 0.3,37.3 L0.3,6.3 C0.3,3.8 1.9,2.7 3.8,3.8 L47.7,27.9 C49.7,29 51.2,31.8 51.2,34.3 L51.2,65.3 C51.2,67.7 49.6,68.9 47.7,67.8 Z" fill="#D4ECFF"></path></g><g transform="translate(12.000000, 27.000000)" fill="#FFFFFF" id="Path"><path d="M6.5,6 C6.5,7.8 5.2,8.5 3.5,7.6 C1.8,6.7 0.5,4.5 0.5,2.7 C0.5,0.9 1.8,0.2 3.5,1.1 C5.2,2.1 6.5,4.2 6.5,6 Z"></path><path d="M15.5,11 C15.5,12.8 14.2,13.5 12.5,12.6 C10.9,11.7 9.5,9.5 9.5,7.7 C9.5,5.9 10.8,5.2 12.5,6.1 C14.2,7 15.5,9.2 15.5,11 Z"></path><path d="M24.5,15.9 C24.5,17.7 23.2,18.4 21.5,17.5 C19.9,16.6 18.5,14.4 18.5,12.6 C18.5,10.8 19.8,10.1 21.5,11 C23.1,11.9 24.5,14.1 24.5,15.9 Z"></path></g></g><g id="Group" transform="translate(469.000000, 355.000000)"><polygon id="Path" fill="#D4ECFF" points="0.1 192 25.9 177.9 51.7 192 25.9 206.2"></polygon><polygon id="Path" fill="#D4ECFF" points="54.9 161.6 80.6 147.5 106.4 161.6 80.6 175.7"></polygon><polygon id="Path" fill="#D4ECFF" points="109.4 131.9 135.2 117.8 161 131.9 135.2 146"></polygon><g id="Path"><g><g transform="translate(54.000000, 72.000000)"><polygon fill="#C13D1A" points="26.6 89.6 26.6 14.2 0.9 0.1 0.9 75.5"></polygon><polygon fill="#641589" points="26.6 14.2 52.4 0.1 52.4 75.5 26.6 89.6"></polygon><polygon fill="#B22EFF" points="26.6 89.6 26.6 14.2 0.9 0.1 0.9 75.5"></polygon></g><g transform="translate(0.000000, 121.000000)"><polygon fill="#B22EFF" points="25.9 71 25.9 28.6 0.1 14.5 0.1 56.9"></polygon><polygon fill="#641589" points="25.9 28.6 51.7 14.5 51.7 56.9 25.9 71"></polygon><polygon fill="#B22EFF" points="0.1 14.5 25.9 0.3 51.7 14.5 25.9 28.6"></polygon></g><g transform="translate(109.000000, 0.000000)"><polygon fill="#B22EFF" points="26.2 131.9 26.2 28.2 0.4 14.1 0.4 117.8"></polygon><polygon fill="#641589" points="26.2 28.2 52 14.1 52 117.8 26.2 131.9"></polygon><polygon fill="#B22EFF" points="0.4 14.1 26.2 0 52 14.1 26.2 28.2"></polygon></g></g><polygon fill="#B22EFF" points="54.9 72.1 80.6 57.9 106.4 72.1 80.6 86.2"></polygon></g></g></g></g></g></svg> 