<svg width="511" height="476" viewBox="0 0 511 476" fill="none" xmlns="http://www.w3.org/2000/svg">
<path d="M94.96 200.051C101.876 215.146 105.765 229.433 100.669 235.802C100.371 236.174 100.042 236.52 99.6846 236.836C95.7603 240.293 88.0436 240.37 75.0137 235.225C40.3381 221.532 38.6935 197.895 31.6808 174.811C24.7672 152.016 0.616016 155.869 0 155.97C56.272 136.371 83.2227 174.456 94.96 200.051Z" fill="#1A4694"/>
<path d="M100.669 235.808C100.371 236.18 100.042 236.526 99.6844 236.842C93.1695 232.92 80.7089 224.598 74.8183 215.259C72.0462 210.859 69.7141 205.909 67.2418 200.654C62.5667 190.737 57.7403 180.482 49.3086 172.603L50.2491 171.591C58.8761 179.64 63.7602 190.016 68.4876 200.054C70.9379 205.26 73.2507 210.177 75.9843 214.508C81.7209 223.633 94.3273 231.985 100.669 235.808Z" fill="url(#paint0_linear)"/>
<path d="M88.9328 206.219C88.523 207.223 88.259 207.793 88.2315 207.87C88.1242 207.32 88.0197 206.77 87.9152 206.219C83.2896 182.517 77.1047 180.042 58.5555 159.309C39.58 138.103 50.495 118.346 50.495 118.346C114.044 136.709 93.2504 195.623 88.9328 206.219Z" fill="#548AE7"/>
<path d="M88.9355 206.219C88.5257 207.223 88.2617 207.792 88.2342 207.869C88.127 207.319 88.0225 206.769 87.918 206.219C89.9778 185.729 77.6162 161.685 73.7303 157.37C69.7125 152.904 67.2347 146.76 66.3051 144.445C66.1484 144.06 65.9999 143.694 65.9531 143.62L66.8496 143.114C66.9266 143.254 67.0312 143.51 67.2594 144.071C68.1724 146.339 70.6035 152.359 74.5031 156.688C79.4202 162.15 90.8248 186.309 88.9355 206.219Z" fill="#1A4694"/>
<path d="M449.333 108.79L441.503 95.9777C441.195 95.473 441.099 94.8664 441.238 94.2913C441.377 93.7163 441.738 93.2199 442.243 92.9114C442.748 92.6028 443.354 92.5075 443.929 92.6462C444.504 92.7849 445.001 93.1464 445.309 93.6511L450.848 102.726L465.572 94.0114C465.825 93.8622 466.104 93.7643 466.395 93.7233C466.686 93.6822 466.981 93.6988 467.266 93.7721C467.55 93.8454 467.817 93.974 468.051 94.1504C468.286 94.3269 468.483 94.5479 468.633 94.8007C468.782 95.0535 468.88 95.3332 468.921 95.6238C468.962 95.9144 468.945 96.2103 468.872 96.4945C468.799 96.7788 468.67 97.0458 468.494 97.2803C468.317 97.5149 468.096 97.7123 467.843 97.8615L449.333 108.79Z" fill="#F0C141"/>
<path d="M454.584 128.555C449.013 128.555 443.568 126.903 438.936 123.808C434.304 120.713 430.693 116.314 428.562 111.167C426.43 106.02 425.872 100.356 426.959 94.8927C428.046 89.4289 430.729 84.4102 434.669 80.4712C438.608 76.5321 443.627 73.8498 449.091 72.7633C454.555 71.6768 460.218 72.235 465.365 74.3672C470.512 76.4995 474.91 80.1101 478.005 84.7423C481.1 89.3746 482.751 94.8205 482.75 100.391C482.742 107.859 479.772 115.018 474.492 120.298C469.211 125.578 462.052 128.548 454.584 128.555ZM454.584 76.2485C449.809 76.2485 445.141 77.6645 441.171 80.3173C437.201 82.9702 434.106 86.7408 432.279 91.1523C430.452 95.5639 429.974 100.418 430.905 105.101C431.837 109.785 434.136 114.087 437.513 117.463C440.889 120.839 445.191 123.139 449.874 124.07C454.557 125.002 459.412 124.524 463.823 122.697C468.235 120.869 472.005 117.775 474.658 113.804C477.311 109.834 478.727 105.166 478.727 100.391C478.721 93.9903 476.175 87.8533 471.649 83.3271C467.122 78.8008 460.985 76.2551 454.584 76.2485Z" fill="#F0C141"/>
<path d="M362.109 67.3767L357.269 59.4537C357.078 59.1415 357.019 58.7664 357.105 58.4108C357.191 58.0552 357.414 57.7483 357.727 57.5575C358.039 57.3668 358.414 57.3079 358.77 57.3938C359.125 57.4796 359.432 57.7033 359.623 58.0154L363.047 63.6201L372.144 58.2354C372.3 58.1432 372.472 58.0825 372.651 58.0569C372.831 58.0313 373.013 58.0412 373.189 58.0861C373.364 58.1311 373.529 58.2102 373.674 58.3188C373.819 58.4275 373.941 58.5636 374.033 58.7194C374.125 58.8753 374.186 59.0478 374.212 59.227C374.237 59.4063 374.227 59.5889 374.182 59.7643C374.137 59.9398 374.058 60.1046 373.95 60.2495C373.841 60.3944 373.705 60.5165 373.549 60.6087L362.109 67.3767Z" fill="#F0C141"/>
<path d="M365.358 79.579C361.916 79.579 358.551 78.5582 355.689 76.6457C352.826 74.7332 350.595 72.0148 349.278 68.8345C347.961 65.6541 347.616 62.1545 348.288 58.7782C348.959 55.4019 350.617 52.3006 353.051 49.8664C355.485 47.4323 358.586 45.7746 361.963 45.103C365.339 44.4314 368.839 44.7761 372.019 46.0935C375.199 47.4108 377.918 49.6417 379.83 52.504C381.743 55.3662 382.764 58.7313 382.764 62.1738C382.758 66.7884 380.923 71.2125 377.66 74.4755C374.397 77.7385 369.973 79.5739 365.358 79.579ZM365.358 47.2546C362.408 47.2546 359.523 48.1296 357.07 49.769C354.616 51.4083 352.704 53.7383 351.575 56.4645C350.446 59.1906 350.15 62.1903 350.726 65.0844C351.302 67.9784 352.722 70.6367 354.809 72.7232C356.895 74.8097 359.554 76.2306 362.448 76.8062C365.342 77.3819 368.342 77.0865 371.068 75.9573C373.794 74.8281 376.124 72.9158 377.763 70.4624C379.402 68.009 380.278 65.1245 380.278 62.1738C380.272 58.2185 378.699 54.4267 375.902 51.63C373.105 48.8332 369.314 47.2597 365.358 47.2546Z" fill="#F0C141"/>
<path d="M272.608 38.1158L265.183 25.9605C264.918 25.4832 264.849 24.9222 264.988 24.3947C265.128 23.8672 265.466 23.4141 265.932 23.13C266.398 22.8459 266.955 22.7529 267.488 22.8704C268.021 22.9879 268.488 23.3068 268.791 23.7604L274.044 32.3571L288 24.1069C288.483 23.8214 289.06 23.7393 289.603 23.8788C290.146 24.0183 290.612 24.368 290.897 24.8508C291.183 25.3337 291.265 25.9102 291.126 26.4535C290.986 26.9968 290.636 27.4625 290.154 27.748L272.608 38.1158Z" fill="#C0D8FF"/>
<path d="M277.587 56.8553C272.306 56.8553 267.144 55.2893 262.753 52.3554C258.362 49.4215 254.94 45.2515 252.919 40.3726C250.898 35.4938 250.37 30.1252 251.4 24.9458C252.43 19.7664 254.973 15.0089 258.707 11.2747C262.441 7.54061 267.199 4.99764 272.378 3.9674C277.558 2.93716 282.926 3.46591 287.805 5.48681C292.684 7.5077 296.854 10.93 299.788 15.3208C302.722 19.7117 304.288 24.874 304.288 30.1548C304.279 37.2335 301.463 44.0198 296.458 49.0252C291.452 54.0307 284.666 56.8465 277.587 56.8553ZM277.587 7.26871C273.061 7.26871 268.636 8.61095 264.872 11.1257C261.109 13.6405 258.175 17.2148 256.443 21.3967C254.711 25.5786 254.258 30.1802 255.141 34.6197C256.024 39.0591 258.204 43.1371 261.404 46.3377C264.605 49.5384 268.683 51.7181 273.122 52.6012C277.562 53.4842 282.163 53.031 286.345 51.2988C290.527 49.5666 294.102 46.6333 296.616 42.8696C299.131 39.106 300.473 34.6813 300.473 30.1548C300.467 24.087 298.053 18.2697 293.763 13.9791C289.472 9.68857 283.655 7.27526 277.587 7.26871Z" fill="#C0D8FF"/>
<path d="M194.08 67.2532L189.174 59.2202C188.993 58.9045 188.942 58.5305 189.032 58.1778C189.122 57.825 189.347 57.5216 189.658 57.3319C189.968 57.1423 190.341 57.0815 190.696 57.1624C191.051 57.2434 191.36 57.4598 191.558 57.7655L195.029 63.4444L204.25 57.9855C204.569 57.7966 204.95 57.7422 205.309 57.8342C205.668 57.9263 205.976 58.1573 206.165 58.4764C206.354 58.7955 206.409 59.1765 206.316 59.5357C206.224 59.8949 205.993 60.2029 205.674 60.3918L194.08 67.2532Z" fill="#F0C141"/>
<path d="M197.376 79.634C193.887 79.634 190.476 78.5994 187.575 76.6609C184.674 74.7224 182.413 71.9671 181.077 68.7435C179.742 65.5199 179.393 61.9727 180.073 58.5506C180.754 55.1284 182.434 51.985 184.902 49.5177C187.369 47.0505 190.512 45.3703 193.934 44.6896C197.357 44.0089 200.904 44.3582 204.127 45.6935C207.351 47.0287 210.106 49.2899 212.045 52.1911C213.983 55.0923 215.018 58.5031 215.018 61.9923C215.013 66.6696 213.152 71.1539 209.845 74.4613C206.538 77.7686 202.053 79.6289 197.376 79.634ZM197.376 46.8697C194.385 46.8697 191.46 47.7568 188.973 49.4188C186.486 51.0808 184.547 53.443 183.402 56.2068C182.257 58.9706 181.958 62.0118 182.541 64.9459C183.125 67.8799 184.566 70.575 186.681 72.6903C188.796 74.8057 191.491 76.2462 194.425 76.8298C197.359 77.4134 200.401 77.1139 203.164 75.9691C205.928 74.8243 208.29 72.8856 209.952 70.3983C211.614 67.9109 212.501 64.9866 212.501 61.9951C212.498 57.9847 210.903 54.1396 208.067 51.3038C205.232 48.468 201.386 46.8733 197.376 46.8697Z" fill="#F0C141"/>
<path d="M125.155 28.6723L119.014 18.6153C118.772 18.2193 118.698 17.7434 118.807 17.2924C118.916 16.8414 119.2 16.4522 119.596 16.2104C119.992 15.9686 120.468 15.8941 120.919 16.0031C121.37 16.1122 121.759 16.396 122.001 16.792L126.343 23.9037L137.893 17.0698C138.091 16.936 138.314 16.8442 138.549 16.7998C138.783 16.7555 139.024 16.7596 139.257 16.812C139.49 16.8643 139.71 16.9637 139.903 17.1042C140.096 17.2446 140.258 17.423 140.379 17.6285C140.501 17.834 140.579 18.0621 140.609 18.2989C140.639 18.5357 140.62 18.7761 140.553 19.0053C140.487 19.2346 140.374 19.4478 140.222 19.6319C140.07 19.8159 139.882 19.9669 139.67 20.0756L125.155 28.6723Z" fill="#F0C141"/>
<path d="M129.277 44.1717C124.909 44.1717 120.639 42.8764 117.007 40.4495C113.375 38.0227 110.544 34.5734 108.873 30.5377C107.201 26.5021 106.764 22.0613 107.616 17.7771C108.468 13.4929 110.571 9.55756 113.66 6.4688C116.749 3.38004 120.684 1.27657 124.969 0.424383C129.253 -0.427804 133.693 0.00956935 137.729 1.68119C141.765 3.35282 145.214 6.18361 147.641 9.81561C150.068 13.4476 151.363 17.7177 151.363 22.0858C151.357 27.9414 149.028 33.5552 144.887 37.6956C140.747 41.8361 135.133 44.1651 129.277 44.1717ZM129.277 3.15434C125.533 3.1538 121.872 4.26365 118.759 6.34354C115.645 8.42343 113.218 11.3799 111.785 14.8392C110.352 18.2984 109.976 22.105 110.706 25.7775C111.437 29.45 113.239 32.8236 115.887 35.4715C118.534 38.1194 121.908 39.9227 125.58 40.6534C129.253 41.3841 133.059 41.0093 136.519 39.5765C139.978 38.1437 142.935 35.7172 145.015 32.6039C147.096 29.4906 148.206 25.8303 148.206 22.0858C148.2 17.0672 146.204 12.2557 142.656 8.70665C139.107 5.15765 134.296 3.16089 129.277 3.15434Z" fill="#F0C141"/>
<path d="M46.9248 78.6522L40.1157 67.5034C39.8851 67.0675 39.8292 66.5602 39.9595 66.0846C40.0897 65.6091 40.3963 65.201 40.8168 64.9434C41.2372 64.6859 41.74 64.5982 42.2229 64.6983C42.7057 64.7984 43.1322 65.0786 43.4157 65.4821L48.2311 73.3638L61.0492 65.7956C61.2684 65.6659 61.511 65.5807 61.7632 65.5448C62.0153 65.5089 62.2721 65.5231 62.5187 65.5864C62.7654 65.6497 62.9972 65.761 63.2009 65.9139C63.4046 66.0668 63.5761 66.2584 63.7058 66.4776C63.8354 66.6968 63.9206 66.9394 63.9565 67.1915C63.9924 67.4437 63.9783 67.7004 63.915 67.9471C63.8516 68.1938 63.7403 68.4256 63.5874 68.6293C63.4345 68.8329 63.243 69.0045 63.0238 69.1342L46.9248 78.6522Z" fill="#C0D8FF"/>
<path d="M51.4991 95.8402C46.6583 95.8402 41.9262 94.4047 37.9012 91.7153C33.8762 89.0259 30.7391 85.2033 28.8865 80.731C27.034 76.2587 26.5493 71.3374 27.4937 66.5896C28.4381 61.8418 30.7692 57.4807 34.1922 54.0577C37.6152 50.6347 41.9763 48.3036 46.7241 47.3592C51.4719 46.4148 56.3932 46.8995 60.8655 48.752C65.3379 50.6045 69.1604 53.7416 71.8499 57.7666C74.5393 61.7916 75.9747 66.5237 75.9747 71.3646C75.9653 77.853 73.3836 84.073 68.7955 88.661C64.2075 93.249 57.9875 95.8308 51.4991 95.8402ZM51.4991 50.3678C47.348 50.3678 43.29 51.5987 39.8385 53.905C36.3869 56.2112 33.6968 59.4892 32.1082 63.3243C30.5196 67.1595 30.104 71.3796 30.9138 75.451C31.7237 79.5224 33.7226 83.2622 36.6579 86.1975C39.5932 89.1328 43.3331 91.1317 47.4044 91.9416C51.4758 92.7514 55.6959 92.3358 59.5311 90.7472C63.3662 89.1586 66.6442 86.4685 68.9504 83.0169C71.2567 79.5654 72.4876 75.5075 72.4876 71.3563C72.4818 65.7916 70.2687 60.4565 66.3338 56.5216C62.399 52.5867 57.0638 50.3736 51.4991 50.3678Z" fill="#C0D8FF"/>
<path d="M420.461 32.8222L416.591 26.4971C416.439 26.2476 416.392 25.9479 416.46 25.6637C416.529 25.3795 416.708 25.1342 416.957 24.9818C417.207 24.8294 417.506 24.7823 417.791 24.8508C418.075 24.9194 418.32 25.0981 418.472 25.3476L421.223 29.8302L428.499 25.5236C428.751 25.3744 429.051 25.3313 429.335 25.4038C429.618 25.4762 429.861 25.6583 430.01 25.9099C430.16 26.1616 430.203 26.4621 430.13 26.7455C430.058 27.0289 429.876 27.272 429.624 27.4211L420.461 32.8222Z" fill="#C0D8FF"/>
<path d="M423.063 42.5933C420.309 42.5939 417.617 41.7777 415.326 40.2479C413.036 38.7182 411.251 36.5436 410.197 33.9993C409.143 31.455 408.867 28.6552 409.404 25.954C409.941 23.2529 411.267 20.7717 413.215 18.8242C415.162 16.8768 417.643 15.5507 420.345 15.0135C423.046 14.4763 425.846 14.7523 428.39 15.8065C430.934 16.8607 433.109 18.6457 434.639 20.9359C436.168 23.226 436.984 25.9184 436.984 28.6725C436.98 32.3632 435.512 35.9015 432.902 38.5112C430.292 41.1209 426.754 42.589 423.063 42.5933ZM423.063 16.7427C420.702 16.7421 418.395 17.4416 416.431 18.7528C414.468 20.0639 412.938 21.9278 412.034 24.1086C411.131 26.2895 410.894 28.6893 411.354 31.0047C411.814 33.3202 412.951 35.4471 414.62 37.1165C416.289 38.786 418.416 39.923 420.731 40.3837C423.046 40.8445 425.446 40.6083 427.627 39.705C429.808 38.8018 431.672 37.272 432.984 35.3092C434.296 33.3463 434.996 31.0387 434.996 28.678C434.993 25.5132 433.736 22.4785 431.499 20.2399C429.262 18.0012 426.228 16.7415 423.063 16.7372V16.7427Z" fill="#C0D8FF"/>
<path d="M225.629 419.13H264.031V302.494H225.629V419.13Z" fill="#1A4694"/>
<path d="M95.9051 358.678L393.763 358.678C403.078 358.678 410.629 351.127 410.629 341.812V141.623C410.629 132.308 403.078 124.757 393.763 124.757L95.9051 124.757C86.5901 124.757 79.0389 132.308 79.0389 141.623V341.812C79.0389 351.127 86.5901 358.678 95.9051 358.678Z" fill="#CFC2E7"/>
<path d="M92.0223 322.022L397.641 322.022V99.8634L92.0223 99.8634V322.022Z" fill="#00328D"/>
<path d="M92.0223 126.696L397.641 126.696V99.8636L92.0223 99.8636V126.696Z" fill="#548AE7"/>
<path d="M360.445 338.809C360.445 344.716 366.077 349.507 373.024 349.507C379.971 349.507 385.6 344.716 385.6 338.809C385.6 332.902 379.968 328.114 373.024 328.114C366.08 328.114 360.445 332.888 360.445 338.809Z" fill="white"/>
<path d="M331.213 414.727H158.453V423.53H331.213V414.727Z" fill="#548AE7"/>
<path d="M144.73 108.21H108.429C106.417 108.21 104.785 109.841 104.785 111.854V114.705C104.785 116.718 106.417 118.349 108.429 118.349H144.73C146.742 118.349 148.374 116.718 148.374 114.705V111.854C148.374 109.841 146.742 108.21 144.73 108.21Z" fill="#F5F7FF"/>
<path d="M274.416 220.188H114.406V225.688H274.416V220.188Z" fill="#E6E6E6"/>
<path d="M233.086 230.093H114.406V235.593H233.086V230.093Z" fill="#E6E6E6"/>
<path d="M189.656 251.618H114.406V257.118H189.656V251.618Z" fill="#E6E6E6"/>
<path d="M249.6 261.524H114.406V267.024H249.6V261.524Z" fill="#E6E6E6"/>
<path d="M241.055 285.194H114.406V290.694H241.055V285.194Z" fill="#E6E6E6"/>
<path d="M269.059 295.099H114.406V300.599H269.059V295.099Z" fill="#E6E6E6"/>
<path d="M110.626 220.188H106.605V235.593H110.626V220.188Z" fill="#18BDF7"/>
<path d="M110.626 251.618H106.605V267.024H110.626V251.618Z" fill="#18BDF7"/>
<path d="M110.626 285.194H106.605V300.6H110.626V285.194Z" fill="#18BDF7"/>
<path d="M327.56 285.499H314.745C312.198 285.499 310.133 287.564 310.133 290.111V302.926C310.133 305.473 312.198 307.538 314.745 307.538H327.56C330.107 307.538 332.172 305.473 332.172 302.926V290.111C332.172 287.564 330.107 285.499 327.56 285.499Z" fill="#18BDF7"/>
<path d="M320.458 301.372L314.884 296.516C314.692 296.317 314.582 296.054 314.575 295.778C314.568 295.502 314.665 295.234 314.846 295.026C315.028 294.818 315.281 294.687 315.556 294.657C315.83 294.627 316.106 294.702 316.328 294.866L320.266 298.3L325.884 292.03C326.078 291.811 326.351 291.679 326.643 291.661C326.935 291.644 327.222 291.743 327.441 291.937C327.66 292.131 327.792 292.404 327.81 292.696C327.827 292.988 327.728 293.275 327.534 293.493L320.458 301.372Z" fill="#F3F3F3"/>
<path d="M327.162 273.973H315.158C313.825 273.975 312.547 273.447 311.603 272.507C310.66 271.566 310.128 270.29 310.125 268.957V256.937C310.125 256.276 310.255 255.622 310.508 255.011C310.761 254.401 311.132 253.846 311.599 253.379C312.067 252.912 312.621 252.541 313.232 252.289C313.843 252.036 314.497 251.906 315.158 251.907H327.173C328.505 251.908 329.782 252.438 330.724 253.38C331.666 254.322 332.196 255.599 332.197 256.931V268.957C332.194 270.29 331.662 271.567 330.718 272.508C329.774 273.448 328.495 273.976 327.162 273.973ZM315.158 253.312C314.197 253.313 313.276 253.696 312.597 254.375C311.918 255.055 311.537 255.976 311.536 256.937V268.957C311.539 269.916 311.921 270.835 312.6 271.513C313.279 272.191 314.198 272.572 315.158 272.574H327.173C328.13 272.57 329.048 272.188 329.725 271.51C330.402 270.833 330.783 269.915 330.786 268.957V256.937C330.786 255.976 330.403 255.054 329.724 254.374C329.044 253.695 328.123 253.313 327.162 253.312H315.158Z" fill="#18BDF7"/>
<path d="M360.344 307.549H348.326C346.994 307.547 345.718 307.017 344.776 306.075C343.835 305.133 343.305 303.856 343.305 302.524V290.512C343.305 289.18 343.835 287.903 344.776 286.961C345.718 286.019 346.994 285.489 348.326 285.488H360.344C361.676 285.489 362.953 286.019 363.894 286.961C364.836 287.903 365.365 289.18 365.366 290.512V302.524C365.365 303.856 364.836 305.133 363.894 306.075C362.953 307.017 361.676 307.547 360.344 307.549ZM348.326 286.887C347.365 286.889 346.444 287.271 345.765 287.951C345.086 288.63 344.703 289.551 344.702 290.512V302.524C344.703 303.485 345.086 304.406 345.765 305.086C346.444 305.765 347.365 306.147 348.326 306.149H360.344C361.305 306.147 362.226 305.765 362.905 305.085C363.584 304.406 363.965 303.485 363.966 302.524V290.512C363.965 289.551 363.584 288.63 362.905 287.951C362.226 287.271 361.305 286.889 360.344 286.887H348.326Z" fill="#18BDF7"/>
<path d="M360.744 251.923H347.928C345.381 251.923 343.316 253.988 343.316 256.535V269.35C343.316 271.897 345.381 273.962 347.928 273.962H360.744C363.291 273.962 365.355 271.897 365.355 269.35V256.535C365.355 253.988 363.291 251.923 360.744 251.923Z" fill="#18BDF7"/>
<path d="M353.643 267.797L348.071 262.94C347.879 262.742 347.769 262.478 347.762 262.202C347.755 261.927 347.852 261.658 348.034 261.45C348.216 261.243 348.469 261.111 348.743 261.081C349.018 261.051 349.293 261.126 349.515 261.29L353.453 264.725L359.072 258.46C359.271 258.265 359.537 258.154 359.816 258.147C360.095 258.141 360.365 258.241 360.573 258.427C360.781 258.613 360.911 258.871 360.936 259.149C360.961 259.426 360.879 259.703 360.708 259.923L353.643 267.797Z" fill="#F3F3F3"/>
<path d="M360.344 240.398H348.326C346.995 240.396 345.719 239.867 344.777 238.925C343.836 237.984 343.306 236.707 343.305 235.376V223.361C343.306 222.029 343.836 220.752 344.777 219.811C345.718 218.869 346.995 218.339 348.326 218.336H360.344C361.676 218.339 362.952 218.869 363.894 219.811C364.835 220.752 365.364 222.029 365.366 223.361V235.376C365.364 236.707 364.835 237.984 363.893 238.925C362.952 239.867 361.675 240.396 360.344 240.398ZM348.326 219.731C347.365 219.732 346.444 220.115 345.765 220.794C345.086 221.473 344.703 222.394 344.702 223.355V235.37C344.703 236.331 345.086 237.252 345.765 237.932C346.444 238.611 347.365 238.994 348.326 238.995H360.344C361.305 238.993 362.225 238.61 362.904 237.931C363.583 237.251 363.965 236.331 363.966 235.37V223.361C363.967 222.399 363.586 221.477 362.906 220.796C362.227 220.115 361.306 219.732 360.344 219.731H348.326Z" fill="#18BDF7"/>
<path d="M327.56 218.348H314.745C312.198 218.348 310.133 220.412 310.133 222.96V235.775C310.133 238.322 312.198 240.387 314.745 240.387H327.56C330.107 240.387 332.172 238.322 332.172 235.775V222.96C332.172 220.412 330.107 218.348 327.56 218.348Z" fill="#18BDF7"/>
<path d="M320.458 234.221L314.884 229.356C314.692 229.158 314.582 228.895 314.575 228.619C314.568 228.343 314.665 228.074 314.846 227.867C315.028 227.659 315.281 227.527 315.556 227.497C315.83 227.468 316.106 227.542 316.328 227.706L320.266 231.138L325.884 224.879C326.079 224.66 326.352 224.528 326.644 224.51C326.936 224.493 327.223 224.592 327.442 224.787C327.661 224.981 327.794 225.255 327.811 225.547C327.828 225.839 327.729 226.126 327.534 226.345L320.458 234.221Z" fill="#F3F3F3"/>
<path d="M506.334 325.215C502.209 323.235 498.084 336.403 498.084 336.403C491.057 345.69 481.231 333.334 482.194 347.219C483.874 371.516 454.226 354.858 467.893 380.22C481.561 405.581 455.815 394.564 464.318 415.016C472.822 435.468 461.802 459.864 474.59 449.84C474.59 449.84 485.865 425.145 497.465 417.505C509.065 409.865 490.507 400.798 494.143 390.422C499.42 375.349 512.134 375.94 502.965 359.742C493.796 343.545 520.392 331.934 506.334 325.215Z" fill="#EF8762"/>
<path d="M470.538 440.562C476.083 436.665 482.57 409.486 482.958 393.313C483.156 385.024 485.606 381.57 487.768 378.523C489.833 375.61 491.618 373.094 490.578 367.319C488.593 356.283 493.815 351.517 493.878 351.47L493.276 350.783C493.042 350.983 487.603 355.898 489.701 367.481C490.672 372.877 489.071 375.135 487.044 377.992C484.916 380.989 482.27 384.721 482.064 393.291C481.649 410.657 475.016 436.31 470.035 439.814L470.538 440.562Z" fill="white"/>
<path d="M458.928 432.628C458.406 431.44 457.864 430.213 457.254 428.921C454.086 422.235 451.28 421.135 446.633 419.295C445.497 418.85 444.21 418.347 442.783 417.711C436.125 414.719 437.415 410.308 438.55 406.419C438.71 405.869 438.869 405.319 439.007 404.794C439.593 402.509 438.457 401.359 436.766 399.621C435.498 398.331 433.925 396.723 432.709 394.184C431.381 391.407 432.057 389.919 432.861 389.157C434.549 387.557 438.443 387.851 442.12 389.859C443.264 390.483 444.202 391.467 445.197 392.51C447.543 394.965 450.461 398.01 457.848 398.054C462.055 398.073 464.36 398.653 465.548 399.995C466.901 401.516 466.648 403.796 466.293 406.947C466.169 408.048 466.032 409.274 465.949 410.611C465.446 418.586 470.152 424.328 470.198 424.383C473.006 427.73 476.468 434.674 474.975 438.958C474.348 440.749 472.948 441.876 470.812 442.308C470.041 442.471 469.256 442.557 468.468 442.564C463.315 442.564 461.426 438.285 458.928 432.628ZM441.694 390.678C438.41 388.885 434.89 388.525 433.504 389.837C432.451 390.835 432.954 392.545 433.551 393.802C434.7 396.206 436.152 397.688 437.434 398.994C439.216 400.812 440.621 402.248 439.909 405.044C439.769 405.594 439.606 406.144 439.444 406.694C438.314 410.569 437.244 414.23 443.173 416.894C444.565 417.519 445.841 418.019 446.968 418.462C451.66 420.305 454.759 421.52 458.081 428.533C458.7 429.839 459.242 431.071 459.77 432.262C462.636 438.763 464.368 442.685 470.638 441.417C472.434 441.054 473.606 440.127 474.117 438.667C475.434 434.899 472.283 428.307 469.502 424.993C469.299 424.751 464.517 418.919 465.042 410.575C465.127 409.216 465.267 407.97 465.391 406.868C465.718 403.95 465.941 401.843 464.871 400.628C463.881 399.528 461.714 399.011 457.848 398.978C450.079 398.942 447.012 395.73 444.548 393.15C443.564 392.119 442.711 391.225 441.694 390.675V390.678Z" fill="#548AE7"/>
<path d="M470.718 447.858L471.634 447.811C471.587 446.95 470.432 426.674 462.284 420.739C453.351 414.23 450.538 407.234 449.196 402.536C447.615 397.003 439.571 395.524 439.23 395.466L439.07 396.368C439.15 396.368 446.892 397.809 448.313 402.79C449.688 407.616 452.584 414.805 461.745 421.49C469.544 427.161 470.707 447.651 470.718 447.858Z" fill="#F9B253"/>
<path d="M452.11 345.684C457.885 343.701 456.694 354.853 459.139 363.103C461.584 371.353 486.337 366.703 475.948 387.367C465.558 408.031 489.087 394.278 482.058 412.307C475.029 430.337 481.448 449.623 473.808 444.72C466.168 439.816 469.515 417.106 461.57 414.408C453.625 411.711 452.327 408.564 460.195 401.23C468.063 393.896 439.57 386.613 446.61 371.804C453.65 356.995 445.419 347.969 452.11 345.684Z" fill="#F9B253"/>
<path d="M470.263 443.862C470.989 440.774 477.204 413.611 471.407 410.311C466.295 407.418 466.421 396.162 467.219 385.53C467.923 376.122 455.839 371.725 455.325 371.541L455.02 372.407C455.138 372.448 466.958 376.755 466.295 385.464C465.47 396.379 465.39 407.962 470.945 411.109C475.345 413.603 471.294 435.436 469.361 443.636L470.263 443.862Z" fill="white"/>
<path d="M492.085 434.173L483.824 465.516H465.363L457.102 434.173H492.085Z" fill="#415487"/>
<path d="M492.091 434.173C492.091 434.173 473.904 437.589 473.904 465.524H465.379L457.129 434.173H492.091Z" fill="#4968AD"/>
<path d="M220.681 359.492C220.681 359.492 221.481 360.801 221.583 361.871C221.66 362.718 222.372 363.983 222.683 364.681C222.993 365.38 223.983 368.532 224.019 369.357C224.019 369.695 223.282 371.815 223.389 372.494C223.497 373.174 223.884 374.516 223.274 374.606C222.663 374.697 221.976 373.594 221.976 373.594C221.991 373.767 221.955 373.94 221.874 374.093C221.792 374.245 221.668 374.371 221.517 374.455C220.516 374.92 219.985 374.513 219.985 374.513C219.985 374.513 219.614 375.198 219.16 375.291C218.137 375.495 217.636 375.085 217.636 375.085C217.303 375.336 216.895 375.467 216.479 375.456C216.213 375.447 215.955 375.369 215.73 375.229C215.504 375.089 215.32 374.892 215.194 374.659C215.194 374.659 214.047 374.89 213.715 374.356C213.382 373.823 213.44 373.256 213.302 372.767C213.165 372.277 213.269 367.91 214.754 364.758C216.239 361.607 214.377 358.541 214.377 358.541L220.681 359.492Z" fill="#EEA886"/>
<path d="M222.13 373.185C222.13 373.185 222.232 369.258 221.2 368.424C220.169 367.591 220.048 369.005 220.048 369.005C220.048 369.005 220.188 367.605 219.061 367.415C217.933 367.225 217.884 368.889 217.884 368.889C217.856 368.739 217.797 368.597 217.711 368.471C217.625 368.345 217.514 368.239 217.385 368.158C217.256 368.077 217.111 368.024 216.96 368.003C216.809 367.981 216.656 367.991 216.509 368.031C215.323 368.254 215.607 369.632 215.607 369.632C215.607 369.632 214.474 368.281 213.739 369.58C212.499 371.78 213.693 374.356 213.693 374.356C213.693 374.356 214.042 374.948 215.172 374.659C215.172 374.659 215.926 376.18 217.614 375.085C217.614 375.085 219.344 376.037 219.974 374.513C219.979 374.521 221.882 375.426 222.13 373.185Z" fill="#DB9C7C"/>
<path d="M233.992 302.962C233.992 302.962 227.274 325.353 225.005 333.611C224.292 336.202 222.568 360.936 222.255 361.937C221.941 362.938 213.43 364.299 213.43 364.299C213.43 364.299 214.461 333.356 214.557 331.667C214.653 329.979 223.96 295.424 226.658 294.189C228.684 293.268 229.754 294.03 232.309 295.927C235.914 298.584 233.992 302.962 233.992 302.962Z" fill="#EF8762"/>
<path d="M314.872 261.569L299.496 271.631L300.243 272.773L315.619 262.711L314.872 261.569Z" fill="#4DA8F2"/>
<path d="M317.263 267.321C317.198 267.745 317.064 268.157 316.867 268.539C316.867 268.539 316.364 269.141 316.042 269.589C315.956 269.703 315.876 269.822 315.803 269.944C315.487 270.666 315.058 271.333 314.532 271.919C313.801 272.661 310.957 275.024 310.957 275.024L308.515 272.95L305.977 271.814C305.977 271.814 307.398 265.638 308.001 264.868C308.056 264.793 308.117 264.722 308.182 264.656C308.757 264.054 309.436 263.831 309.774 263.556C309.898 263.454 311.202 262.514 311.669 262.635C311.931 262.685 312.176 262.802 312.381 262.973C312.586 263.144 312.744 263.365 312.841 263.614C312.841 263.614 314.092 263.999 314.579 264.73C314.579 264.73 315.742 265.049 316.089 266.133C316.067 266.138 317.213 266.595 317.263 267.321Z" fill="#EFAA88"/>
<path d="M228.533 455.833C228.533 455.833 227.919 460.084 227.842 460.722C227.765 461.36 221.03 460.346 221.03 460.346L220.48 455.286C220.48 455.286 227.708 455.233 228.533 455.833Z" fill="#424773"/>
<path d="M227.923 460.181C227.923 460.181 230.057 462.744 232.122 463.86C234.188 464.977 237.43 465.417 238.651 466.572C239.531 467.397 241.858 470.999 233.286 470.925C224.714 470.851 220.58 471.434 219.662 470.056C218.743 468.678 220.993 459.881 220.993 459.881C220.993 459.881 223.031 460.637 227.923 460.181Z" fill="#292C47"/>
<path d="M276.799 455.833C276.799 455.833 276.189 460.084 276.112 460.722C276.035 461.36 269.3 460.346 269.3 460.346L268.75 455.286C268.75 455.286 275.958 455.233 276.799 455.833Z" fill="#424773"/>
<path d="M276.185 460.181C276.185 460.181 278.319 462.744 280.384 463.86C282.45 464.977 290.043 465.893 291.264 467.048C292.144 467.873 293.609 471.239 281.548 470.925C272.978 470.702 268.842 471.434 267.924 470.056C267.005 468.678 269.252 459.881 269.252 459.881C269.252 459.881 271.158 460.673 276.185 460.181Z" fill="#292C47"/>
<path d="M234.117 346.616C234.117 346.616 227.789 356.684 228.254 365.76C228.719 374.835 225.961 384.771 225.009 394.267C223.95 404.852 219.613 429.911 219.454 435.573C219.294 441.235 220.128 459.314 220.128 459.314L228.81 459.512C228.81 459.512 236.103 415.704 237.992 411.235C239.881 406.766 249.245 374.895 249.562 371.32C249.878 367.745 234.117 346.616 234.117 346.616Z" fill="#292C47"/>
<path d="M267.436 347.98C267.436 347.98 272.208 372.89 272.838 378.454C273.467 384.017 273.885 405.374 274.213 408.853C274.54 412.332 277.152 454.246 277.988 459.515H266.878C266.878 459.515 258.353 428.967 258.353 414.516C258.353 400.064 251.775 383.085 247.526 373.559C243.277 364.032 233.55 363.796 230.938 346.102C230.938 346.102 263.9 342.367 267.436 347.98Z" fill="#292C47"/>
<path d="M244.68 262.082C244.68 262.082 253.175 258.911 257.091 265.382C261.007 271.853 260.63 284.795 256.348 286.384C252.066 287.974 245.623 287.146 243.442 283.098C241.261 279.05 239.27 273.198 239.367 269.295C239.463 265.393 242.449 263.209 244.68 262.082Z" fill="#EEA886"/>
<path d="M255.425 286.673C255.425 286.673 255.07 288.967 255.656 290.097C256.242 291.227 244.656 291.255 244.656 291.255C244.656 291.255 243.715 285.111 241.93 279.919C240.145 274.727 255.425 286.673 255.425 286.673Z" fill="#EEA886"/>
<path d="M241.926 279.919C241.926 279.919 242.726 281.239 245.994 280.724C249.261 280.21 253.24 275.87 254.604 275.392C255.968 274.913 255.979 274.116 255.979 274.116L256.834 275.362L258.281 275.452C258.281 275.452 256.961 271.567 258.955 269.983C260.948 268.399 256.887 257.407 246.406 261.064C246.406 261.064 238.362 263.281 238.656 267.857C238.951 272.433 240.128 277.642 241.926 279.919Z" fill="#2C1E56"/>
<path d="M256.348 289.962C256.348 289.962 256.312 287.803 255.333 287.594C254.354 287.385 244.534 286.445 243.332 286.915V289.432C243.332 289.432 245.645 290.856 256.348 289.962Z" fill="#E2D2CA"/>
<path d="M255.757 272.452C255.572 271.685 253.623 269.491 252.875 271.839C252.127 274.188 254.005 277.339 255.05 277.064C256.095 276.789 256.23 274.397 255.757 272.452Z" fill="#EEA886"/>
<path d="M272.592 293.229C265.857 292.341 256.348 289.959 256.348 289.959L243.332 289.431C243.332 289.431 231.385 292.06 226.68 294.183C226.234 294.387 226.232 304.843 225.008 307.585L228.907 315.813C228.907 315.813 231.162 332.115 231.627 339.364C231.844 342.692 226.982 370.572 226.982 370.572C226.982 370.572 232.191 372.107 241.074 373.086C249.956 374.065 272.15 372.731 272.295 371.681C272.441 370.63 267.997 332.61 267.799 330.641C267.499 327.616 268.841 311.561 268.841 311.561C270.893 309.972 288.9 301.611 293.815 297.261C295.129 296.095 300.69 290.691 302.257 288.826C307.843 282.226 312.433 276.553 312.983 275.332C313.615 274.636 306.77 270.945 306.162 270.745C305.629 270.566 298.22 280.397 295.313 283.546C294.018 284.949 288.631 288.868 288.631 288.868C288.631 288.868 276.805 293.471 272.592 293.229Z" fill="#EF8762"/>
<path d="M242.261 262.844C242.261 262.844 231.431 263.691 241.928 279.919L242.261 262.844Z" fill="#2C1E56"/>
<path d="M315.627 262.676L316.515 261.32L314.879 261.535L315.627 262.676Z" fill="#DFE1E8"/>
<path d="M98.774 340.588C98.774 340.588 104.043 340.907 105.52 341.73C106.997 342.552 116.957 339.409 117.142 338.685C117.326 337.962 117.142 337.604 117.142 337.604H97.5859L98.774 340.588Z" fill="#DE9673"/>
<path d="M75.1178 317.358C75.1178 317.358 73.4375 330.559 75.1178 332.297C81.5392 338.897 105.338 338.385 105.338 338.385V341.075C105.338 341.075 69.1612 345.588 65.8006 338.569C61.7607 330.141 63.3255 316.39 63.3255 316.39L75.1178 317.358Z" fill="#DE9673"/>
<path d="M63.1758 456.551L65.3237 454.1L61.4433 450.041L58.168 452.338L63.1758 456.551Z" fill="#2F4563"/>
<path d="M58.17 452.337C58.17 452.337 62.5976 455.673 63.8296 455.805C65.0616 455.937 65.6419 456.49 65.4962 458.365C65.3504 460.241 67.2947 468.145 68.6505 468.266C70.0063 468.387 74.6209 468.417 75.4597 471.461C76.2984 474.506 60.8155 473.865 59.8558 471.368C58.896 468.871 52.2326 456.776 53.0218 455.802C53.8111 454.829 55.8984 452.662 58.17 452.337Z" fill="#1E2D40"/>
<path d="M86.5792 357.785C86.5792 357.785 115.502 408.185 103.762 418.611C99.158 422.697 94.7249 426.396 88.3613 431.866C84.9732 434.776 80.8838 438.144 76.0354 443.191L75.8347 443.403C72.3778 447.005 69.5095 450.049 68.646 450.993C68.613 451.023 68.5855 451.053 68.5607 451.081L68.4645 451.185L65.2442 454.257L60.5195 450.104C60.5195 450.104 65.8739 442.696 68.8935 437.006C73.1314 429.031 80.2513 419.631 83.5459 417.01C89.189 412.525 90.7401 411.645 90.7401 407.355C90.7401 402.754 64.2294 377.049 64.2294 377.049C64.2294 377.049 60.3793 360.964 69.57 356.756C78.516 352.653 86.5792 357.785 86.5792 357.785Z" fill="#23344A"/>
<path d="M64.5226 464.355C64.5226 464.355 64.3411 462.034 64.7316 460.549C65.1221 459.064 58.7447 459.917 58.7447 459.917C58.7447 459.917 57.9196 466.116 58.1616 467.535C58.4036 468.954 64.5226 464.355 64.5226 464.355Z" fill="#41608A"/>
<path d="M65.7284 460.558L57.1234 462.109C57.1234 462.109 56.5047 451.13 56.6147 442.721C56.7357 433.678 56.2819 426.572 59.043 419.375C61.6253 412.643 61.0368 410.08 61.2623 405.485C61.4878 400.889 59.0622 377.228 59.0622 377.228C59.0622 377.228 56.1032 366.634 62.9068 359.16C69.5345 351.877 86.684 359.129 86.684 359.129C86.684 359.129 83.1089 391.454 74.5341 411.45C72.1086 417.109 73.4341 420.547 70.3238 429.289C70.3238 429.287 65.6212 448.358 65.7284 460.558Z" fill="#2F4563"/>
<path d="M73.2054 295.215C72.73 296.081 72.3861 297.014 72.1851 297.981C71.9676 298.955 71.8106 299.942 71.7149 300.935C71.5886 302.183 71.5308 303.437 71.5416 304.692C71.5416 304.692 60.0656 302.195 61.9466 299.519C63.8277 296.843 62.7221 288.73 62.7221 288.73C62.7221 288.73 74.6904 292.712 73.2054 295.215Z" fill="#EEA987"/>
<path d="M79.6563 273.109C79.6563 273.109 82.5933 275.659 81.2816 283.01C81.2816 283.01 81.9306 288.865 82.8271 289.885C83.7236 290.905 80.4208 291.285 80.077 292.019C79.7333 292.753 79.0705 296.196 76.7769 298.27C74.4834 300.343 63.0761 294.093 62.5206 290.57C61.965 287.047 54.0668 271.897 66.5687 271.204C79.0705 270.511 79.6563 273.109 79.6563 273.109Z" fill="#EEA886"/>
<path d="M87.5256 327.344C87.2946 328.081 88.1691 339.389 88.0893 340.366C87.6521 345.715 89.0326 353.841 89.5771 356.756C89.7064 357.444 89.7779 357.796 89.7779 357.796C77.3861 363.846 60.1486 363.326 60.1486 363.326C60.2119 362.856 62.6237 357.034 62.6787 356.588C63.6989 349.312 65.206 345.989 64.7962 341.07C64.5652 338.32 63.8639 335.415 62.4064 331.835C58.196 321.495 58.4271 314.611 59.1063 308.93C59.7856 303.248 61.4961 300.008 61.4961 300.008L71.9657 301.133C74.1877 303.608 76.165 304.906 82.4819 310.514C89.2086 316.481 90.3856 318.291 87.5256 327.344Z" fill="#F9B253"/>
<path d="M57.7741 465.926C57.7741 465.926 63.8243 464.204 64.0085 464.034C64.1928 463.863 64.2285 463.5 65.0645 463.833C65.9006 464.166 66.2443 465.433 67.0638 465.835C67.8834 466.236 72.8802 467.697 75.6193 469.044C76.6093 469.531 80.795 471.126 81.3945 472.46C81.994 473.794 81.8097 475.798 74.6155 475.323C67.4214 474.847 59.5534 475.873 57.9776 475.075C56.4018 474.278 57.3616 468.008 57.7741 465.926Z" fill="#23344A"/>
<path d="M81.5963 280.367C81.5963 280.367 83.0016 265.107 68.2007 267.829C53.3998 270.552 61.0285 287.237 63.0223 292.674C63.0223 292.674 62.7803 284.231 69.8975 283.956C77.0147 283.681 78.5052 282.031 81.5963 280.367Z" fill="#464240"/>
<path d="M68.7498 281.811C67.8587 280.263 64.8034 281.088 65.1527 283.461C65.5019 285.834 67.9495 288.177 68.7608 287.036C69.572 285.895 70.0588 284.082 68.7498 281.811Z" fill="#EEA987"/>
<path d="M69.0927 311.797C69.0927 311.797 67.8717 324.874 69.552 326.604C75.9734 333.218 101.31 333.344 101.31 333.344L102.52 337.145C102.52 337.145 64.8604 339.711 61.4998 332.693C57.4599 324.264 59.0247 310.513 59.0247 310.513L69.0927 311.797Z" fill="#EEA987"/>
<path d="M63.5291 271.586C63.5291 271.586 57.8309 266.119 53.7773 272.312C49.7237 278.505 58.5927 287.143 62.1843 282.017C65.7759 276.891 63.5291 271.586 63.5291 271.586Z" fill="#464240"/>
<path d="M72.1806 297.981C71.9631 298.955 71.806 299.942 71.7103 300.935C67.896 299.197 65.0469 293.886 65.0469 293.886C67.7969 296.268 72.1806 297.981 72.1806 297.981Z" fill="#A77860"/>
<path d="M126.661 337.145H90.7422V339.15H126.661V337.145Z" fill="#6E6760"/>
<path d="M141.049 306.151L124.871 338.22L126.661 339.123L142.839 307.054L141.049 306.151Z" fill="#6E6760"/>
<path d="M96.0201 333.345C96.0201 333.345 101.289 332.94 102.766 331.895C104.243 330.85 114.204 334.846 114.404 335.784C114.605 336.722 114.404 337.159 114.404 337.159H94.832L96.0201 333.345Z" fill="#EEA987"/>
<path d="M61.5039 300.008L62.2409 298.006L72.2952 300.008V301.79L61.5039 300.008Z" fill="#EB4747"/>
<path d="M69.075 311.971C69.075 311.971 70.153 304.392 64.8783 303.721C59.6037 303.05 59.0234 310.535 59.0234 310.535L69.075 311.971Z" fill="#EEA987"/>
<path d="M412.805 454.862C412.805 454.862 413.415 459.152 413.492 459.796C413.569 460.439 420.304 459.416 420.304 459.416L420.854 454.309C420.854 454.309 413.646 454.243 412.805 454.862Z" fill="#5C544D"/>
<path d="M413.424 459.237C413.424 459.237 411.29 461.822 409.228 462.95C407.165 464.077 403.92 464.523 402.702 465.7C401.819 466.542 399.492 470.166 408.064 470.1C416.636 470.034 420.767 470.614 421.685 469.223C422.604 467.831 420.357 458.965 420.357 458.965C420.357 458.965 418.325 459.683 413.424 459.237Z" fill="#3C4145"/>
<path d="M364.555 454.862C364.555 454.862 365.168 459.152 365.242 459.796C365.316 460.439 372.054 459.416 372.054 459.416L372.604 454.309C372.604 454.309 365.396 454.243 364.555 454.862Z" fill="#5C544D"/>
<path d="M365.172 459.237C365.172 459.237 363.04 461.822 360.975 462.95C358.91 464.077 351.317 465.001 350.099 466.167C349.216 467.009 347.75 470.4 359.812 470.081C368.378 469.858 372.514 470.595 373.433 469.204C374.351 467.812 372.105 458.946 372.105 458.946C372.105 458.946 370.191 459.732 365.172 459.237Z" fill="#3C4145"/>
<path d="M410.417 344.083C410.417 344.083 413.992 354.729 413.53 363.903C413.068 373.077 415.384 383.118 416.332 392.702C417.394 403.389 421.728 428.684 421.887 434.399C422.047 440.113 421.214 458.363 421.214 458.363L412.532 458.563C412.532 458.563 405.241 414.342 403.352 409.829C401.463 405.317 392.101 373.149 391.785 369.541C391.469 365.933 410.417 344.083 410.417 344.083Z" fill="#33373B"/>
<path d="M373.916 345.978C373.916 345.978 369.151 371.125 368.521 376.741C367.891 382.356 367.47 403.914 367.146 407.423C366.821 410.932 365.047 453.349 363.367 458.575H374.466C374.466 458.575 382.992 427.741 382.992 413.152C382.992 398.562 389.578 381.435 393.827 371.81C398.076 362.184 407.8 361.956 410.413 344.097C410.413 344.083 377.453 340.313 373.916 345.978Z" fill="#3C4145"/>
<path d="M396.475 260.038C396.475 260.038 387.727 256.771 383.693 263.429C379.659 270.087 380.049 283.422 384.458 285.061C388.866 286.7 395.491 285.842 397.749 281.676C400.007 277.51 402.044 271.484 401.948 267.458C401.852 263.432 398.761 261.199 396.475 260.038Z" fill="#EEA886"/>
<path d="M385.924 284.652C385.924 284.652 386.279 286.945 385.693 288.073C385.108 289.2 396.694 289.233 396.694 289.233C396.694 289.233 397.637 283.09 399.419 277.897C401.201 272.705 385.924 284.652 385.924 284.652Z" fill="#EEA886"/>
<path d="M399.424 277.898C399.424 277.898 398.623 279.218 395.359 278.706C392.095 278.195 388.112 273.85 386.748 273.374C385.384 272.898 385.373 272.095 385.373 272.095L384.518 273.341L383.072 273.434C383.072 273.434 384.392 269.548 382.401 267.964C380.409 266.38 384.46 255.388 394.938 259.057C394.938 259.057 402.979 261.273 402.685 265.847C402.391 270.42 401.236 275.621 399.424 277.898Z" fill="#2C1E56"/>
<path d="M385.008 287.932C385.008 287.932 385.046 285.774 386.023 285.567C386.999 285.361 396.822 284.415 398.024 284.888V287.402C398.024 287.402 395.706 288.832 385.008 287.932Z" fill="#E2D2CA"/>
<path d="M385.592 270.431C385.776 269.664 387.726 267.472 388.474 269.821C389.222 272.169 387.347 275.321 386.299 275.046C385.251 274.771 385.13 272.376 385.592 270.431Z" fill="#EEA886"/>
<path d="M385.006 287.933C385.006 287.933 379.624 289.858 373.387 292.517C373.387 292.517 366.215 295.196 365.44 303.119C365.027 307.324 360.55 329.64 359.708 331.527C358.867 333.413 348.942 363.75 348.593 364.379C348.243 365.009 356.694 368.504 357.255 368.229C357.816 367.954 366.881 340.561 367.777 338.529C367.777 338.529 373.002 322.105 373.129 319.658C373.129 319.658 373.277 326.637 373.558 328.595C373.838 330.553 368.921 368.579 369.061 369.626C369.202 370.674 391.395 372.008 400.277 371.029C405.696 370.424 411.06 369.413 416.327 368.004C416.327 368.004 409.339 337.995 409.553 334.667C410.021 327.418 412.441 313.767 412.441 313.767L419.685 327.421L410.414 351.272L412.537 358.522C412.537 358.522 429.764 332.489 430.325 330.111C430.886 327.732 429.48 324.704 428.57 322.746C427.66 320.788 421.695 305.882 420.29 303.77C418.884 301.658 416.528 293.271 410.816 290.933C406.036 288.978 398.022 287.375 398.022 287.375L385.006 287.933Z" fill="#F9B253"/>
<path d="M380.438 349.81L339.855 339.406L332.597 367.718L373.179 378.122L380.438 349.81Z" fill="#D6D6D6"/>
<path d="M345.062 370.575C345.062 370.575 343.901 372.451 343.478 372.984C343.054 373.518 344.52 373.853 345.147 373.314C345.774 372.775 345.062 370.575 345.062 370.575Z" fill="#C98462"/>
<path d="M353.513 376.977C353.513 376.977 354.197 376.262 354.338 375.803C354.338 375.803 354.541 374.95 354.723 374.351C354.767 374.196 354.82 374.043 354.882 373.894C355.077 373.465 355.633 372.585 355.809 371.419C355.985 370.253 356.496 365.072 356.496 365.072L353.35 364.28L350.826 363.747C350.826 363.747 345.37 369.189 345.078 370.248C345.05 370.348 345.028 370.45 345.012 370.553C344.853 371.474 345.119 372.225 345.092 372.717C345.092 372.899 345.108 374.703 345.529 375.041C345.75 375.245 346.019 375.388 346.31 375.458C346.602 375.529 346.907 375.523 347.196 375.443C347.196 375.443 348.378 376.312 349.365 376.268C349.365 376.268 350.43 377.093 351.637 376.691C351.645 376.691 352.836 377.417 353.513 376.977Z" fill="#DE9D7D"/>
<path d="M365.782 344.139C365.782 344.139 358.579 365.955 357.256 368.243C357.256 368.243 351.974 367.143 348.594 364.393L356.503 340.852L365.782 344.139Z" fill="#F9B253"/>
<path d="M369.883 170.557C369.884 176.98 367.98 183.258 364.412 188.599C360.844 193.939 355.772 198.102 349.838 200.56C343.905 203.018 337.375 203.661 331.076 202.409C324.777 201.156 318.99 198.063 314.449 193.521C309.907 188.98 306.814 183.193 305.561 176.894C304.308 170.595 304.952 164.065 307.41 158.131C309.868 152.198 314.031 147.126 319.371 143.558C324.712 139.99 330.99 138.086 337.413 138.087C341.682 138.069 345.913 138.896 349.86 140.521C353.808 142.147 357.395 144.538 360.413 147.556C363.432 150.575 365.823 154.162 367.449 158.11C369.074 162.057 369.901 166.288 369.883 170.557Z" fill="#EEF0F7"/>
<path d="M360.63 187.968C360.454 187.848 360.271 187.74 360.08 187.646C360.07 187.64 360.06 187.634 360.05 187.627C358.625 186.84 354.448 184.764 346.206 182.401C344.713 181.945 343.582 181.648 343.181 181.549L342.482 180.449C342.39 179.148 342.371 177.844 342.427 176.541C343.588 175.194 344.627 173.09 345.224 169.806C345.411 169.949 345.557 169.641 345.557 169.641C345.452 169.454 347.124 165.376 346.822 164.454C346.651 163.932 346.305 163.998 346.033 164.152C346.074 163.913 346.115 163.665 346.159 163.404C346.159 163.404 346.819 157.148 343.654 153.663C343.327 153.35 342.161 153.27 342.161 153.27C337.076 151.713 334.026 152.409 332.117 153.226C329.285 155.547 329.07 159.493 329.2 161.669C329.257 162.183 329.315 162.7 329.373 163.203C329.372 163.209 329.372 163.214 329.373 163.22C329.398 163.42 329.42 163.616 329.444 163.811C329.169 163.649 328.834 163.566 328.641 164.086C328.303 164.993 329.538 169.069 329.692 169.311C329.692 169.311 329.967 169.729 330.168 169.539C330.753 173.114 331.818 175.328 332.918 176.69C332.838 178.142 332.643 179.849 332.48 180.941L331.224 182.253L331.026 182.319C316.81 186.111 312.795 188.751 312.795 188.751C312.438 188.971 312.072 189.56 311.695 190.434C314.661 194.272 318.449 197.397 322.78 199.579C327.112 201.761 331.877 202.945 336.726 203.045C341.575 203.144 346.385 202.156 350.802 200.154C355.219 198.151 359.132 195.184 362.253 191.471C361.653 189.953 361.213 188.551 360.63 187.968Z" fill="#AEC1FF"/>
<path d="M109.287 144.97H108.707V199.842H109.287V144.97Z" fill="#E0E0E0"/>
<path d="M150.631 144.97H150.051V199.842H150.631V144.97Z" fill="#E0E0E0"/>
<path d="M191.979 144.97H191.398V199.842H191.979V144.97Z" fill="#E0E0E0"/>
<path d="M233.326 144.97H232.746V199.842H233.326V144.97Z" fill="#E0E0E0"/>
<path d="M274.666 144.97H274.086V199.842H274.666V144.97Z" fill="#E0E0E0"/>
<path d="M115.574 203.093H108.996V204.999H115.574V203.093Z" fill="#B8B8B8"/>
<path d="M118.899 138.208H108.996V139.638H118.899V138.208Z" fill="#D9D9D9"/>
<path d="M123.043 140.853H108.996V142.283H123.043V140.853Z" fill="#D9D9D9"/>
<path d="M161.526 138.208H149.898V139.638H161.526V138.208Z" fill="#D9D9D9"/>
<path d="M157.332 140.853H149.898V142.283H157.332V140.853Z" fill="#D9D9D9"/>
<path d="M199.186 138.208H191.98V139.638H199.186V138.208Z" fill="#D9D9D9"/>
<path d="M200.379 140.853H191.98V142.283H200.379V140.853Z" fill="#D9D9D9"/>
<path d="M243.819 138.208H233.324V139.638H243.819V138.208Z" fill="#D9D9D9"/>
<path d="M241.723 140.853H233.324V142.283H241.723V140.853Z" fill="#D9D9D9"/>
<path d="M280.646 138.208H274.379V139.638H280.646V138.208Z" fill="#D9D9D9"/>
<path d="M279.395 140.853H274.379V142.283H279.395V140.853Z" fill="#D9D9D9"/>
<path d="M156.922 203.093H150.344V204.999H156.922V203.093Z" fill="#B8B8B8"/>
<path d="M198.559 203.093H191.98V204.999H198.559V203.093Z" fill="#B8B8B8"/>
<path d="M239.902 203.093H233.324V204.999H239.902V203.093Z" fill="#B8B8B8"/>
<path d="M281.246 203.093H274.668V204.999H281.246V203.093Z" fill="#B8B8B8"/>
<path d="M260.051 183.537C247.153 183.537 235.944 178.524 224.256 173.296C209.829 166.844 194.91 160.17 175.03 161.998C162.335 163.165 154.368 167.815 147.339 171.915C140.976 175.631 134.964 178.895 126.81 179.175C113.637 179.626 109.069 174.575 108.992 174.264V171.024C109.009 171.079 111.885 176.75 126.796 176.681C134.139 176.648 139.556 173.486 145.832 169.825C153.125 165.568 161.389 160.75 174.749 159.518C195.421 157.618 210.706 164.468 225.488 171.068C240.954 177.985 255.714 184.472 274.376 178.843V181.505C269.057 183.111 264.803 183.537 260.051 183.537Z" fill="#F9B253"/>
<path d="M182.643 182.916C173.125 182.916 165.576 177.16 158.184 171.522C152.579 167.248 146.766 162.879 140.053 160.725C119.57 154.147 109.09 166.157 108.996 166.264V162.609C109.106 162.485 110.976 160.302 116.386 158.209C121.308 156.311 129.569 154.796 140.963 158.363C148.182 160.621 154.163 165.191 159.974 169.613C171.736 178.581 181.895 186.326 199.534 174.195C212.894 165.004 225.489 156.256 237.881 153.058C250.003 149.928 262.632 152.233 274.457 162.859L274.369 166.176C249.244 143.48 227.849 157.86 201.217 176.183C194.155 181.037 188.08 182.916 182.643 182.916Z" fill="#EF8762"/>
<defs>
<linearGradient id="paint0_linear" x1="107.826" y1="244.958" x2="58.1477" y2="188.708" gradientUnits="userSpaceOnUse">
<stop stop-color="#40D5E6"/>
<stop offset="1" stop-color="#5577FF"/>
</linearGradient>
</defs>
</svg>
